G04 #@! TF.GenerationSoftware,KiCad,Pcbnew,8.0.6-8.0.6-0~ubuntu24.04.1*
G04 #@! TF.CreationDate,2025-03-08T10:25:46+05:30*
G04 #@! TF.ProjectId,DFTBoard,44465442-6f61-4726-942e-6b696361645f,rev?*
G04 #@! TF.SameCoordinates,Original*
G04 #@! TF.FileFunction,Paste,Bot*
G04 #@! TF.FilePolarity,Positive*
%FSLAX46Y46*%
G04 Gerber Fmt 4.6, Leading zero omitted, Abs format (unit mm)*
G04 Created by KiCad (PCBNEW 8.0.6-8.0.6-0~ubuntu24.04.1) date 2025-03-08 10:25:46*
%MOMM*%
%LPD*%
G01*
G04 APERTURE LIST*
G04 Aperture macros list*
%AMRoundRect*
0 Rectangle with rounded corners*
0 $1 Rounding radius*
0 $2 $3 $4 $5 $6 $7 $8 $9 X,Y pos of 4 corners*
0 Add a 4 corners polygon primitive as box body*
4,1,4,$2,$3,$4,$5,$6,$7,$8,$9,$2,$3,0*
0 Add four circle primitives for the rounded corners*
1,1,$1+$1,$2,$3*
1,1,$1+$1,$4,$5*
1,1,$1+$1,$6,$7*
1,1,$1+$1,$8,$9*
0 Add four rect primitives between the rounded corners*
20,1,$1+$1,$2,$3,$4,$5,0*
20,1,$1+$1,$4,$5,$6,$7,0*
20,1,$1+$1,$6,$7,$8,$9,0*
20,1,$1+$1,$8,$9,$2,$3,0*%
G04 Aperture macros list end*
%ADD10C,0.150000*%
%ADD11C,0.100000*%
%ADD12C,0.000000*%
%ADD13R,0.497600X0.697600*%
%ADD14RoundRect,0.109400X0.109400X0.134400X-0.109400X0.134400X-0.109400X-0.134400X0.109400X-0.134400X0*%
%ADD15RoundRect,0.109400X-0.134400X0.109400X-0.134400X-0.109400X0.134400X-0.109400X0.134400X0.109400X0*%
%ADD16RoundRect,0.109400X-0.109400X-0.134400X0.109400X-0.134400X0.109400X0.134400X-0.109400X0.134400X0*%
%ADD17RoundRect,0.180650X0.218150X-0.180650X0.218150X0.180650X-0.218150X0.180650X-0.218150X-0.180650X0*%
%ADD18RoundRect,0.219520X-1.029280X0.329280X-1.029280X-0.329280X1.029280X-0.329280X1.029280X0.329280X0*%
%ADD19RoundRect,0.219520X-0.579280X0.329280X-0.579280X-0.329280X0.579280X-0.329280X0.579280X0.329280X0*%
%ADD20RoundRect,0.216133X-1.407667X0.270167X-1.407667X-0.270167X1.407667X-0.270167X1.407667X0.270167X0*%
%ADD21R,0.747600X0.647600*%
%ADD22RoundRect,0.109400X0.134400X-0.109400X0.134400X0.109400X-0.134400X0.109400X-0.134400X-0.109400X0*%
%ADD23R,0.907600X0.497600*%
%ADD24RoundRect,0.219520X0.329280X1.029280X-0.329280X1.029280X-0.329280X-1.029280X0.329280X-1.029280X0*%
%ADD25RoundRect,0.180650X-0.218150X0.180650X-0.218150X-0.180650X0.218150X-0.180650X0.218150X0.180650X0*%
%ADD26RoundRect,0.205650X-0.205650X-0.418150X0.205650X-0.418150X0.205650X0.418150X-0.205650X0.418150X0*%
%ADD27R,0.640000X0.640000*%
%ADD28R,0.697600X0.127600*%
%ADD29R,0.127600X0.547600*%
%ADD30RoundRect,0.180650X0.180650X0.218150X-0.180650X0.218150X-0.180650X-0.218150X0.180650X-0.218150X0*%
%ADD31RoundRect,0.245000X0.245000X0.245000X-0.245000X0.245000X-0.245000X-0.245000X0.245000X-0.245000X0*%
%ADD32RoundRect,0.024400X0.274400X0.024400X-0.274400X0.024400X-0.274400X-0.024400X0.274400X-0.024400X0*%
%ADD33RoundRect,0.024400X0.024400X0.274400X-0.024400X0.274400X-0.024400X-0.274400X0.024400X-0.274400X0*%
%ADD34RoundRect,0.180650X-0.180650X-0.218150X0.180650X-0.218150X0.180650X0.218150X-0.180650X0.218150X0*%
%ADD35RoundRect,0.216133X-0.270167X-1.407667X0.270167X-1.407667X0.270167X1.407667X-0.270167X1.407667X0*%
%ADD36R,0.647600X0.747600*%
%ADD37R,0.497600X0.907600*%
%ADD38R,0.650000X0.750000*%
%ADD39R,0.097600X0.347600*%
%ADD40RoundRect,0.205650X-0.418150X0.205650X-0.418150X-0.205650X0.418150X-0.205650X0.418150X0.205650X0*%
%ADD41R,0.547600X1.597600*%
%ADD42R,1.147600X1.347600*%
%ADD43R,1.347600X1.347600*%
%ADD44R,0.647600X1.247600*%
%ADD45R,0.847600X1.397600*%
%ADD46R,1.347600X0.647600*%
%ADD47R,0.647600X1.347600*%
%ADD48RoundRect,0.205650X0.418150X-0.205650X0.418150X0.205650X-0.418150X0.205650X-0.418150X-0.205650X0*%
%ADD49RoundRect,0.221778X-0.377022X-1.377022X0.377022X-1.377022X0.377022X1.377022X-0.377022X1.377022X0*%
%ADD50RoundRect,0.221778X1.377022X-0.377022X1.377022X0.377022X-1.377022X0.377022X-1.377022X-0.377022X0*%
%ADD51RoundRect,0.148800X-0.000010X0.250000X-0.000010X-0.250000X0.000010X-0.250000X0.000010X0.250000X0*%
%ADD52RoundRect,0.186900X-0.211900X0.186900X-0.211900X-0.186900X0.211900X-0.186900X0.211900X0.186900X0*%
%ADD53RoundRect,0.096900X0.096900X0.146900X-0.096900X0.146900X-0.096900X-0.146900X0.096900X-0.146900X0*%
G04 APERTURE END LIST*
D10*
X110130953Y-155900057D02*
X110178572Y-155852438D01*
X110178572Y-155852438D02*
X110273810Y-155804819D01*
X110273810Y-155804819D02*
X110511905Y-155804819D01*
X110511905Y-155804819D02*
X110607143Y-155852438D01*
X110607143Y-155852438D02*
X110654762Y-155900057D01*
X110654762Y-155900057D02*
X110702381Y-155995295D01*
X110702381Y-155995295D02*
X110702381Y-156090533D01*
X110702381Y-156090533D02*
X110654762Y-156233390D01*
X110654762Y-156233390D02*
X110083334Y-156804819D01*
X110083334Y-156804819D02*
X110702381Y-156804819D01*
X111178572Y-156804819D02*
X111369048Y-156804819D01*
X111369048Y-156804819D02*
X111464286Y-156757200D01*
X111464286Y-156757200D02*
X111511905Y-156709580D01*
X111511905Y-156709580D02*
X111607143Y-156566723D01*
X111607143Y-156566723D02*
X111654762Y-156376247D01*
X111654762Y-156376247D02*
X111654762Y-155995295D01*
X111654762Y-155995295D02*
X111607143Y-155900057D01*
X111607143Y-155900057D02*
X111559524Y-155852438D01*
X111559524Y-155852438D02*
X111464286Y-155804819D01*
X111464286Y-155804819D02*
X111273810Y-155804819D01*
X111273810Y-155804819D02*
X111178572Y-155852438D01*
X111178572Y-155852438D02*
X111130953Y-155900057D01*
X111130953Y-155900057D02*
X111083334Y-155995295D01*
X111083334Y-155995295D02*
X111083334Y-156233390D01*
X111083334Y-156233390D02*
X111130953Y-156328628D01*
X111130953Y-156328628D02*
X111178572Y-156376247D01*
X111178572Y-156376247D02*
X111273810Y-156423866D01*
X111273810Y-156423866D02*
X111464286Y-156423866D01*
X111464286Y-156423866D02*
X111559524Y-156376247D01*
X111559524Y-156376247D02*
X111607143Y-156328628D01*
X111607143Y-156328628D02*
X111654762Y-156233390D01*
X112083334Y-156709580D02*
X112130953Y-156757200D01*
X112130953Y-156757200D02*
X112083334Y-156804819D01*
X112083334Y-156804819D02*
X112035715Y-156757200D01*
X112035715Y-156757200D02*
X112083334Y-156709580D01*
X112083334Y-156709580D02*
X112083334Y-156804819D01*
X113035714Y-155804819D02*
X112559524Y-155804819D01*
X112559524Y-155804819D02*
X112511905Y-156281009D01*
X112511905Y-156281009D02*
X112559524Y-156233390D01*
X112559524Y-156233390D02*
X112654762Y-156185771D01*
X112654762Y-156185771D02*
X112892857Y-156185771D01*
X112892857Y-156185771D02*
X112988095Y-156233390D01*
X112988095Y-156233390D02*
X113035714Y-156281009D01*
X113035714Y-156281009D02*
X113083333Y-156376247D01*
X113083333Y-156376247D02*
X113083333Y-156614342D01*
X113083333Y-156614342D02*
X113035714Y-156709580D01*
X113035714Y-156709580D02*
X112988095Y-156757200D01*
X112988095Y-156757200D02*
X112892857Y-156804819D01*
X112892857Y-156804819D02*
X112654762Y-156804819D01*
X112654762Y-156804819D02*
X112559524Y-156757200D01*
X112559524Y-156757200D02*
X112511905Y-156709580D01*
X113702381Y-155804819D02*
X113797619Y-155804819D01*
X113797619Y-155804819D02*
X113892857Y-155852438D01*
X113892857Y-155852438D02*
X113940476Y-155900057D01*
X113940476Y-155900057D02*
X113988095Y-155995295D01*
X113988095Y-155995295D02*
X114035714Y-156185771D01*
X114035714Y-156185771D02*
X114035714Y-156423866D01*
X114035714Y-156423866D02*
X113988095Y-156614342D01*
X113988095Y-156614342D02*
X113940476Y-156709580D01*
X113940476Y-156709580D02*
X113892857Y-156757200D01*
X113892857Y-156757200D02*
X113797619Y-156804819D01*
X113797619Y-156804819D02*
X113702381Y-156804819D01*
X113702381Y-156804819D02*
X113607143Y-156757200D01*
X113607143Y-156757200D02*
X113559524Y-156709580D01*
X113559524Y-156709580D02*
X113511905Y-156614342D01*
X113511905Y-156614342D02*
X113464286Y-156423866D01*
X113464286Y-156423866D02*
X113464286Y-156185771D01*
X113464286Y-156185771D02*
X113511905Y-155995295D01*
X113511905Y-155995295D02*
X113559524Y-155900057D01*
X113559524Y-155900057D02*
X113607143Y-155852438D01*
X113607143Y-155852438D02*
X113702381Y-155804819D01*
X114654762Y-155804819D02*
X114750000Y-155804819D01*
X114750000Y-155804819D02*
X114845238Y-155852438D01*
X114845238Y-155852438D02*
X114892857Y-155900057D01*
X114892857Y-155900057D02*
X114940476Y-155995295D01*
X114940476Y-155995295D02*
X114988095Y-156185771D01*
X114988095Y-156185771D02*
X114988095Y-156423866D01*
X114988095Y-156423866D02*
X114940476Y-156614342D01*
X114940476Y-156614342D02*
X114892857Y-156709580D01*
X114892857Y-156709580D02*
X114845238Y-156757200D01*
X114845238Y-156757200D02*
X114750000Y-156804819D01*
X114750000Y-156804819D02*
X114654762Y-156804819D01*
X114654762Y-156804819D02*
X114559524Y-156757200D01*
X114559524Y-156757200D02*
X114511905Y-156709580D01*
X114511905Y-156709580D02*
X114464286Y-156614342D01*
X114464286Y-156614342D02*
X114416667Y-156423866D01*
X114416667Y-156423866D02*
X114416667Y-156185771D01*
X114416667Y-156185771D02*
X114464286Y-155995295D01*
X114464286Y-155995295D02*
X114511905Y-155900057D01*
X114511905Y-155900057D02*
X114559524Y-155852438D01*
X114559524Y-155852438D02*
X114654762Y-155804819D01*
X115607143Y-155804819D02*
X115702381Y-155804819D01*
X115702381Y-155804819D02*
X115797619Y-155852438D01*
X115797619Y-155852438D02*
X115845238Y-155900057D01*
X115845238Y-155900057D02*
X115892857Y-155995295D01*
X115892857Y-155995295D02*
X115940476Y-156185771D01*
X115940476Y-156185771D02*
X115940476Y-156423866D01*
X115940476Y-156423866D02*
X115892857Y-156614342D01*
X115892857Y-156614342D02*
X115845238Y-156709580D01*
X115845238Y-156709580D02*
X115797619Y-156757200D01*
X115797619Y-156757200D02*
X115702381Y-156804819D01*
X115702381Y-156804819D02*
X115607143Y-156804819D01*
X115607143Y-156804819D02*
X115511905Y-156757200D01*
X115511905Y-156757200D02*
X115464286Y-156709580D01*
X115464286Y-156709580D02*
X115416667Y-156614342D01*
X115416667Y-156614342D02*
X115369048Y-156423866D01*
X115369048Y-156423866D02*
X115369048Y-156185771D01*
X115369048Y-156185771D02*
X115416667Y-155995295D01*
X115416667Y-155995295D02*
X115464286Y-155900057D01*
X115464286Y-155900057D02*
X115511905Y-155852438D01*
X115511905Y-155852438D02*
X115607143Y-155804819D01*
X117130953Y-156804819D02*
X117130953Y-156138152D01*
X117130953Y-156233390D02*
X117178572Y-156185771D01*
X117178572Y-156185771D02*
X117273810Y-156138152D01*
X117273810Y-156138152D02*
X117416667Y-156138152D01*
X117416667Y-156138152D02*
X117511905Y-156185771D01*
X117511905Y-156185771D02*
X117559524Y-156281009D01*
X117559524Y-156281009D02*
X117559524Y-156804819D01*
X117559524Y-156281009D02*
X117607143Y-156185771D01*
X117607143Y-156185771D02*
X117702381Y-156138152D01*
X117702381Y-156138152D02*
X117845238Y-156138152D01*
X117845238Y-156138152D02*
X117940477Y-156185771D01*
X117940477Y-156185771D02*
X117988096Y-156281009D01*
X117988096Y-156281009D02*
X117988096Y-156804819D01*
X118464286Y-156804819D02*
X118464286Y-156138152D01*
X118464286Y-156233390D02*
X118511905Y-156185771D01*
X118511905Y-156185771D02*
X118607143Y-156138152D01*
X118607143Y-156138152D02*
X118750000Y-156138152D01*
X118750000Y-156138152D02*
X118845238Y-156185771D01*
X118845238Y-156185771D02*
X118892857Y-156281009D01*
X118892857Y-156281009D02*
X118892857Y-156804819D01*
X118892857Y-156281009D02*
X118940476Y-156185771D01*
X118940476Y-156185771D02*
X119035714Y-156138152D01*
X119035714Y-156138152D02*
X119178571Y-156138152D01*
X119178571Y-156138152D02*
X119273810Y-156185771D01*
X119273810Y-156185771D02*
X119321429Y-156281009D01*
X119321429Y-156281009D02*
X119321429Y-156804819D01*
D11*
X100000000Y-159500000D02*
X100000000Y-156913580D01*
X129500000Y-159500000D02*
X129500000Y-156913580D01*
X100000000Y-157500000D02*
X129500000Y-157500000D01*
X100000000Y-157500000D02*
X129500000Y-157500000D01*
X100000000Y-157500000D02*
X101126504Y-156913579D01*
X100000000Y-157500000D02*
X101126504Y-158086421D01*
X129500000Y-157500000D02*
X128373496Y-158086421D01*
X129500000Y-157500000D02*
X128373496Y-156913579D01*
D12*
G36*
X180016411Y-133618802D02*
G01*
X178189577Y-133618802D01*
X178189577Y-131866968D01*
X180016411Y-131866968D01*
X180016411Y-133618802D01*
G37*
G36*
X180016411Y-135786079D02*
G01*
X178189577Y-135786079D01*
X178189577Y-134034245D01*
X180016411Y-134034245D01*
X180016411Y-135786079D01*
G37*
G36*
X182258688Y-133618802D02*
G01*
X180431854Y-133618802D01*
X180431854Y-131866968D01*
X182258688Y-131866968D01*
X182258688Y-133618802D01*
G37*
G36*
X182258688Y-135786079D02*
G01*
X180431854Y-135786079D01*
X180431854Y-134034245D01*
X182258688Y-134034245D01*
X182258688Y-135786079D01*
G37*
D13*
X180149134Y-126601525D03*
X178499134Y-126601525D03*
X178499134Y-125051525D03*
X180149134Y-125051525D03*
D14*
X157759134Y-109926525D03*
X156789134Y-109926525D03*
X155459134Y-109076525D03*
X154489134Y-109076525D03*
X158559134Y-108426525D03*
X157589134Y-108426525D03*
X153559134Y-108276525D03*
X152589134Y-108276525D03*
X158559134Y-107476525D03*
X157589134Y-107476525D03*
D15*
X155574134Y-111191525D03*
X155574134Y-112161525D03*
D16*
X155539134Y-108126525D03*
X156509134Y-108126525D03*
D14*
X155459134Y-110026525D03*
X154489134Y-110026525D03*
D16*
X154489134Y-107176525D03*
X155459134Y-107176525D03*
D15*
X157674134Y-111891525D03*
X157674134Y-112861525D03*
D14*
X158609134Y-110876525D03*
X157639134Y-110876525D03*
D16*
X160139134Y-111676525D03*
X161109134Y-111676525D03*
D15*
X181574134Y-138691525D03*
X181574134Y-139661525D03*
D16*
X172339134Y-135426525D03*
X173309134Y-135426525D03*
D15*
X168224134Y-133741525D03*
X168224134Y-134711525D03*
D17*
X194310000Y-100527500D03*
X194310000Y-98952500D03*
D18*
X145724134Y-146526525D03*
X145724134Y-149326525D03*
D19*
X143074134Y-135426525D03*
X143074134Y-138226525D03*
D20*
X146624134Y-140489025D03*
X146624134Y-144764025D03*
D21*
X191024134Y-128376525D03*
X191024134Y-130276525D03*
X189024134Y-129326525D03*
X187024134Y-125676525D03*
X187024134Y-127576525D03*
X185024134Y-126626525D03*
X190924134Y-122976525D03*
X190924134Y-124876525D03*
X188924134Y-123926525D03*
D15*
X153024134Y-140841525D03*
X153024134Y-141811525D03*
X192224134Y-128841525D03*
X192224134Y-129811525D03*
X188224134Y-126141525D03*
X188224134Y-127111525D03*
X192124134Y-123441525D03*
X192124134Y-124411525D03*
D16*
X160139134Y-105976525D03*
X161109134Y-105976525D03*
D22*
X177350000Y-126005000D03*
X177350000Y-125035000D03*
D23*
X127524134Y-128276525D03*
X127524134Y-127326525D03*
X127524134Y-126376525D03*
X129724134Y-126376525D03*
X129724134Y-127326525D03*
X129724134Y-128276525D03*
D22*
X164124134Y-145911525D03*
X164124134Y-144941525D03*
D14*
X144009134Y-140326525D03*
X143039134Y-140326525D03*
D16*
X191739134Y-131626525D03*
X192709134Y-131626525D03*
D15*
X172224134Y-113841525D03*
X172224134Y-114811525D03*
D22*
X165724134Y-134711525D03*
X165724134Y-133741525D03*
D14*
X160909134Y-134726525D03*
X159939134Y-134726525D03*
D15*
X184834134Y-139436525D03*
X184834134Y-140406525D03*
D14*
X165795000Y-111490000D03*
X164825000Y-111490000D03*
D22*
X156124134Y-140386525D03*
X156124134Y-139416525D03*
X158624134Y-138011525D03*
X158624134Y-137041525D03*
D24*
X148824134Y-138026525D03*
X146024134Y-138026525D03*
D14*
X127609134Y-135326525D03*
X126639134Y-135326525D03*
D25*
X144424134Y-111939025D03*
X144424134Y-113514025D03*
D18*
X150224134Y-145326525D03*
X150224134Y-148126525D03*
D22*
X176224134Y-127511525D03*
X176224134Y-126541525D03*
D26*
X164086634Y-143026525D03*
X165961634Y-143026525D03*
D22*
X168224134Y-139461525D03*
X168224134Y-138491525D03*
D14*
X162709134Y-144226525D03*
X161739134Y-144226525D03*
D22*
X165124134Y-145911525D03*
X165124134Y-144941525D03*
D16*
X157739134Y-144226525D03*
X158709134Y-144226525D03*
D14*
X171409134Y-146626525D03*
X170439134Y-146626525D03*
D16*
X169739134Y-144226525D03*
X170709134Y-144226525D03*
D22*
X167424134Y-146711525D03*
X167424134Y-145741525D03*
D16*
X154539134Y-137026525D03*
X155509134Y-137026525D03*
D22*
X168224134Y-144311525D03*
X168224134Y-143341525D03*
D14*
X161109134Y-142626525D03*
X160139134Y-142626525D03*
D16*
X165739134Y-137076525D03*
X166709134Y-137076525D03*
X164939134Y-138526525D03*
X165909134Y-138526525D03*
D22*
X157850000Y-132500000D03*
X157850000Y-131530000D03*
X161974134Y-140261525D03*
X161974134Y-139291525D03*
D16*
X159339134Y-139226525D03*
X160309134Y-139226525D03*
X169739134Y-133826525D03*
X170709134Y-133826525D03*
X160939134Y-133726525D03*
X161909134Y-133726525D03*
D15*
X150224134Y-106841525D03*
X150224134Y-107811525D03*
D16*
X158515000Y-136110000D03*
X159485000Y-136110000D03*
D22*
X154624134Y-113211525D03*
X154624134Y-112241525D03*
D16*
X162539134Y-137976525D03*
X163509134Y-137976525D03*
D27*
X147944134Y-110696525D03*
X147944134Y-109836525D03*
X147944134Y-108976525D03*
X146984134Y-110696525D03*
X146984134Y-109836525D03*
X146984134Y-108976525D03*
D28*
X148939134Y-108836525D03*
X148939134Y-109336525D03*
X148939134Y-109836525D03*
X148939134Y-110336525D03*
X148939134Y-110836525D03*
X145989134Y-110836525D03*
X145989134Y-110336525D03*
X145989134Y-109836525D03*
X145989134Y-109336525D03*
X145989134Y-108836525D03*
D29*
X147714134Y-111386525D03*
X147714134Y-108286525D03*
X147214134Y-111386525D03*
X147214134Y-108286525D03*
D22*
X141524134Y-109711525D03*
X141524134Y-108741525D03*
D15*
X144624134Y-107141525D03*
X144624134Y-108111525D03*
D30*
X144411634Y-109426525D03*
X142836634Y-109426525D03*
D15*
X145764134Y-112551525D03*
X145764134Y-113521525D03*
D30*
X148611634Y-114326525D03*
X147036634Y-114326525D03*
X148611634Y-112826525D03*
X147036634Y-112826525D03*
D14*
X147109134Y-107026525D03*
X146139134Y-107026525D03*
D25*
X150424134Y-113039025D03*
X150424134Y-114614025D03*
X150464134Y-109049025D03*
X150464134Y-110624025D03*
D14*
X154709134Y-114726525D03*
X153739134Y-114726525D03*
D16*
X152939134Y-116326525D03*
X153909134Y-116326525D03*
X165739134Y-136126525D03*
X166709134Y-136126525D03*
D15*
X166724134Y-133741525D03*
X166724134Y-134711525D03*
D31*
X118344134Y-135646525D03*
X118344134Y-134426525D03*
X118344134Y-133206525D03*
X117124134Y-135646525D03*
X117124134Y-134426525D03*
X117124134Y-133206525D03*
X115904134Y-135646525D03*
X115904134Y-134426525D03*
X115904134Y-133206525D03*
D32*
X119599134Y-132676525D03*
X119599134Y-133176525D03*
X119599134Y-133676525D03*
X119599134Y-134176525D03*
X119599134Y-134676525D03*
X119599134Y-135176525D03*
X119599134Y-135676525D03*
X119599134Y-136176525D03*
D33*
X118874134Y-136901525D03*
X118374134Y-136901525D03*
X117874134Y-136901525D03*
X117374134Y-136901525D03*
X116874134Y-136901525D03*
X116374134Y-136901525D03*
X115874134Y-136901525D03*
X115374134Y-136901525D03*
D32*
X114649134Y-136176525D03*
X114649134Y-135676525D03*
X114649134Y-135176525D03*
X114649134Y-134676525D03*
X114649134Y-134176525D03*
X114649134Y-133676525D03*
X114649134Y-133176525D03*
X114649134Y-132676525D03*
D33*
X115374134Y-131951525D03*
X115874134Y-131951525D03*
X116374134Y-131951525D03*
X116874134Y-131951525D03*
X117374134Y-131951525D03*
X117874134Y-131951525D03*
X118374134Y-131951525D03*
X118874134Y-131951525D03*
D25*
X122424134Y-134639025D03*
X122424134Y-136214025D03*
D15*
X121724134Y-126441525D03*
X121724134Y-127411525D03*
D16*
X111969134Y-140616525D03*
X112939134Y-140616525D03*
X111669134Y-143416525D03*
X112639134Y-143416525D03*
D15*
X120924134Y-130601525D03*
X120924134Y-131571525D03*
D16*
X111554134Y-145546525D03*
X112524134Y-145546525D03*
D22*
X115924134Y-139111525D03*
X115924134Y-138141525D03*
D34*
X111866634Y-142116525D03*
X113441634Y-142116525D03*
D22*
X121724134Y-125411525D03*
X121724134Y-124441525D03*
D15*
X122824134Y-124441525D03*
X122824134Y-125411525D03*
D14*
X128509134Y-133726525D03*
X127539134Y-133726525D03*
D17*
X110354134Y-143804025D03*
X110354134Y-142229025D03*
D34*
X111269134Y-147126525D03*
X112844134Y-147126525D03*
X118436634Y-129326525D03*
X120011634Y-129326525D03*
D16*
X142339134Y-116126525D03*
X143309134Y-116126525D03*
X160139134Y-110726525D03*
X161109134Y-110726525D03*
X161089134Y-109426525D03*
X162059134Y-109426525D03*
D14*
X153109134Y-110826525D03*
X152139134Y-110826525D03*
D18*
X177724134Y-105726525D03*
X177724134Y-108526525D03*
X176024134Y-144726525D03*
X176024134Y-147526525D03*
D30*
X152611634Y-138226525D03*
X151036634Y-138226525D03*
D16*
X157739134Y-142626525D03*
X158709134Y-142626525D03*
D23*
X129724134Y-122676525D03*
X129724134Y-123626525D03*
X129724134Y-124576525D03*
X127524134Y-124576525D03*
X127524134Y-123626525D03*
X127524134Y-122676525D03*
D35*
X147186634Y-134426525D03*
X151461634Y-134426525D03*
D36*
X137174134Y-132126525D03*
X135274134Y-132126525D03*
X136224134Y-130126525D03*
D34*
X146936634Y-125126525D03*
X148511634Y-125126525D03*
D37*
X146174134Y-128926525D03*
X147124134Y-128926525D03*
X148074134Y-128926525D03*
X148074134Y-131126525D03*
X146174134Y-131126525D03*
D22*
X131124134Y-124511525D03*
X131124134Y-123541525D03*
X138624134Y-132211525D03*
X138624134Y-131241525D03*
D16*
X125139134Y-123626525D03*
X126109134Y-123626525D03*
D38*
X149324134Y-118826525D03*
X148524134Y-118826525D03*
D39*
X148174134Y-117876525D03*
X148674134Y-117876525D03*
X149174134Y-117876525D03*
X149674134Y-117876525D03*
X149674134Y-119776525D03*
X149174134Y-119776525D03*
X148674134Y-119776525D03*
X148174134Y-119776525D03*
D14*
X149809134Y-115926525D03*
X148839134Y-115926525D03*
D22*
X150724134Y-117411525D03*
X150724134Y-116441525D03*
D15*
X150724134Y-118341525D03*
X150724134Y-119311525D03*
D18*
X179324134Y-144726525D03*
X179324134Y-147526525D03*
D22*
X179624134Y-128861525D03*
X179624134Y-127891525D03*
X181424134Y-126311525D03*
X181424134Y-125341525D03*
X180824134Y-128861525D03*
X180824134Y-127891525D03*
D14*
X179989134Y-123610525D03*
X179019134Y-123610525D03*
D40*
X153024134Y-120689025D03*
X153024134Y-122564025D03*
D14*
X175909134Y-137826525D03*
X174939134Y-137826525D03*
D23*
X151724134Y-141676525D03*
X151724134Y-142626525D03*
X151724134Y-143576525D03*
X149524134Y-143576525D03*
X149524134Y-141676525D03*
D30*
X146511634Y-151126525D03*
X144936634Y-151126525D03*
D16*
X133639134Y-125126525D03*
X134609134Y-125126525D03*
D36*
X133274134Y-132126525D03*
X131374134Y-132126525D03*
X132324134Y-130126525D03*
D14*
X135909134Y-133426525D03*
X134939134Y-133426525D03*
D36*
X133674134Y-126426525D03*
X135574134Y-126426525D03*
X134624134Y-128426525D03*
D14*
X126909134Y-131626525D03*
X125939134Y-131626525D03*
D22*
X157024134Y-134711525D03*
X157024134Y-133741525D03*
D15*
X157074134Y-137741525D03*
X157074134Y-138711525D03*
D16*
X143639134Y-110626525D03*
X144609134Y-110626525D03*
D41*
X128924134Y-148076525D03*
X130024134Y-148076525D03*
X131124134Y-148076525D03*
X132224134Y-148076525D03*
X133324134Y-148076525D03*
D42*
X137924134Y-147951525D03*
D41*
X134424134Y-148076525D03*
D43*
X126474134Y-147951525D03*
D44*
X126149134Y-139701525D03*
D41*
X135524134Y-148076525D03*
X136624134Y-148076525D03*
D45*
X126624134Y-137276525D03*
D46*
X137774134Y-138851525D03*
D47*
X138099134Y-140351525D03*
D48*
X142624134Y-133464025D03*
X142624134Y-131589025D03*
D35*
X146886634Y-122426525D03*
X151161634Y-122426525D03*
D16*
X160989134Y-108476525D03*
X161959134Y-108476525D03*
D22*
X158624134Y-134711525D03*
X158624134Y-133741525D03*
X164274134Y-136311525D03*
X164274134Y-135341525D03*
D16*
X163339134Y-139476525D03*
X164309134Y-139476525D03*
D14*
X158709134Y-141226525D03*
X157739134Y-141226525D03*
D25*
X155424134Y-142639025D03*
X155424134Y-144214025D03*
D24*
X142524134Y-142726525D03*
X139724134Y-142726525D03*
D30*
X155861634Y-138226525D03*
X154286634Y-138226525D03*
D14*
X153109134Y-109876525D03*
X152139134Y-109876525D03*
D15*
X156724134Y-110841525D03*
X156724134Y-111811525D03*
D14*
X133209134Y-133626525D03*
X132239134Y-133626525D03*
D15*
X160224134Y-140141525D03*
X160224134Y-141111525D03*
X163324134Y-135341525D03*
X163324134Y-136311525D03*
D22*
X161824134Y-135611525D03*
X161824134Y-134641525D03*
D16*
X179639134Y-139626525D03*
X180609134Y-139626525D03*
D14*
X158559134Y-106526525D03*
X157589134Y-106526525D03*
D22*
X153574134Y-106711525D03*
X153574134Y-105741525D03*
D15*
X158624134Y-113041525D03*
X158624134Y-114011525D03*
D16*
X159489134Y-107476525D03*
X160459134Y-107476525D03*
D49*
X137524134Y-118526525D03*
X143324134Y-118526525D03*
X137524134Y-122426525D03*
X143324134Y-122426525D03*
D50*
X193410000Y-108140000D03*
X193410000Y-102340000D03*
D22*
X190710000Y-108625000D03*
X190710000Y-107655000D03*
D23*
X189810000Y-103090000D03*
X189810000Y-104040000D03*
X189810000Y-104990000D03*
X187610000Y-104990000D03*
X187610000Y-103090000D03*
D34*
X187522500Y-106640000D03*
X189097500Y-106640000D03*
D15*
X145324134Y-119841525D03*
X145324134Y-120811525D03*
D16*
X117539134Y-140526525D03*
X118509134Y-140526525D03*
D15*
X136124134Y-123441525D03*
X136124134Y-124411525D03*
D16*
X175739134Y-128826525D03*
X176709134Y-128826525D03*
D51*
X178319134Y-129926525D03*
X179589134Y-129926525D03*
X180859134Y-129926525D03*
X182129134Y-129926525D03*
X182129134Y-137726525D03*
X180859134Y-137726525D03*
X179589134Y-137726525D03*
X178319134Y-137726525D03*
D15*
X172724134Y-133541525D03*
X172724134Y-134511525D03*
D52*
X176960000Y-139100000D03*
X176960000Y-140650000D03*
D41*
X122714134Y-106560000D03*
X121614134Y-106560000D03*
X120514134Y-106560000D03*
X119414134Y-106560000D03*
X118314134Y-106560000D03*
D42*
X113714134Y-106685000D03*
D41*
X117214134Y-106560000D03*
D43*
X125164134Y-106685000D03*
D44*
X125489134Y-114935000D03*
D41*
X116114134Y-106560000D03*
X115014134Y-106560000D03*
D45*
X125014134Y-117360000D03*
D46*
X113864134Y-115785000D03*
D47*
X113539134Y-114285000D03*
D53*
X127404134Y-117380000D03*
X126384134Y-117380000D03*
X174500000Y-102500000D03*
X173480000Y-102500000D03*
M02*
