G04 #@! TF.GenerationSoftware,KiCad,Pcbnew,8.0.6-8.0.6-0~ubuntu24.04.1*
G04 #@! TF.CreationDate,2025-03-07T13:19:29+05:30*
G04 #@! TF.ProjectId,DFTBoard,44465442-6f61-4726-942e-6b696361645f,rev?*
G04 #@! TF.SameCoordinates,Original*
G04 #@! TF.FileFunction,Soldermask,Top*
G04 #@! TF.FilePolarity,Negative*
%FSLAX46Y46*%
G04 Gerber Fmt 4.6, Leading zero omitted, Abs format (unit mm)*
G04 Created by KiCad (PCBNEW 8.0.6-8.0.6-0~ubuntu24.04.1) date 2025-03-07 13:19:29*
%MOMM*%
%LPD*%
G01*
G04 APERTURE LIST*
G04 Aperture macros list*
%AMRoundRect*
0 Rectangle with rounded corners*
0 $1 Rounding radius*
0 $2 $3 $4 $5 $6 $7 $8 $9 X,Y pos of 4 corners*
0 Add a 4 corners polygon primitive as box body*
4,1,4,$2,$3,$4,$5,$6,$7,$8,$9,$2,$3,0*
0 Add four circle primitives for the rounded corners*
1,1,$1+$1,$2,$3*
1,1,$1+$1,$4,$5*
1,1,$1+$1,$6,$7*
1,1,$1+$1,$8,$9*
0 Add four rect primitives between the rounded corners*
20,1,$1+$1,$2,$3,$4,$5,0*
20,1,$1+$1,$4,$5,$6,$7,0*
20,1,$1+$1,$6,$7,$8,$9,0*
20,1,$1+$1,$8,$9,$2,$3,0*%
%AMFreePoly0*
4,1,37,0.036564,0.214095,0.084773,0.196548,0.089776,0.193513,0.094600,0.189093,0.095074,0.188640,0.301140,-0.017426,0.304128,-0.021694,0.325810,-0.068190,0.327201,-0.073876,0.327486,-0.080413,0.327500,-0.081066,0.327500,-0.125000,0.326595,-0.130130,0.309048,-0.178339,0.302453,-0.186199,0.258024,-0.211851,0.251831,-0.213804,0.238807,-0.214943,0.237500,-0.215000,-0.237500,-0.215000,
-0.242630,-0.214095,-0.290839,-0.196548,-0.298699,-0.189953,-0.324351,-0.145524,-0.326304,-0.139331,-0.327443,-0.126307,-0.327500,-0.125000,-0.327500,0.125000,-0.326595,0.130130,-0.309048,0.178339,-0.302453,0.186199,-0.258024,0.211851,-0.251831,0.213804,-0.238807,0.214943,-0.237500,0.215000,0.031434,0.215000,0.036564,0.214095,0.036564,0.214095,$1*%
%AMFreePoly1*
4,1,37,0.242630,0.214095,0.290839,0.196548,0.298699,0.189953,0.324351,0.145524,0.326304,0.139331,0.327443,0.126307,0.327500,0.125000,0.327500,0.081066,0.326595,0.075936,0.309048,0.027727,0.306013,0.022724,0.301593,0.017900,0.301140,0.017426,0.095074,-0.188640,0.090806,-0.191628,0.044310,-0.213310,0.038624,-0.214701,0.032087,-0.214986,0.031434,-0.215000,-0.237500,-0.215000,
-0.242630,-0.214095,-0.290839,-0.196548,-0.298699,-0.189953,-0.324351,-0.145524,-0.326304,-0.139331,-0.327443,-0.126307,-0.327500,-0.125000,-0.327500,0.125000,-0.326595,0.130130,-0.309048,0.178339,-0.302453,0.186199,-0.258024,0.211851,-0.251831,0.213804,-0.238807,0.214943,-0.237500,0.215000,0.237500,0.215000,0.242630,0.214095,0.242630,0.214095,$1*%
%AMFreePoly2*
4,1,37,0.130130,0.326595,0.178339,0.309048,0.186199,0.302453,0.211851,0.258024,0.213804,0.251831,0.214943,0.238807,0.215000,0.237500,0.215000,-0.237500,0.214095,-0.242630,0.196548,-0.290839,0.189953,-0.298699,0.145524,-0.324351,0.139331,-0.326304,0.126307,-0.327443,0.125000,-0.327500,-0.125000,-0.327500,-0.130130,-0.326595,-0.178339,-0.309048,-0.186199,-0.302453,-0.211851,-0.258024,
-0.213804,-0.251831,-0.214943,-0.238807,-0.215000,-0.237500,-0.215000,0.031434,-0.214095,0.036564,-0.196548,0.084773,-0.193513,0.089776,-0.189093,0.094600,-0.188640,0.095074,0.017426,0.301140,0.021694,0.304128,0.068190,0.325810,0.073876,0.327201,0.080413,0.327486,0.081066,0.327500,0.125000,0.327500,0.130130,0.326595,0.130130,0.326595,$1*%
%AMFreePoly3*
4,1,37,-0.075936,0.326595,-0.027727,0.309048,-0.022724,0.306013,-0.017900,0.301593,-0.017426,0.301140,0.188640,0.095074,0.191628,0.090806,0.213310,0.044310,0.214701,0.038624,0.214986,0.032087,0.215000,0.031434,0.215000,-0.237500,0.214095,-0.242630,0.196548,-0.290839,0.189953,-0.298699,0.145524,-0.324351,0.139331,-0.326304,0.126307,-0.327443,0.125000,-0.327500,-0.125000,-0.327500,
-0.130130,-0.326595,-0.178339,-0.309048,-0.186199,-0.302453,-0.211851,-0.258024,-0.213804,-0.251831,-0.214943,-0.238807,-0.215000,-0.237500,-0.215000,0.237500,-0.214095,0.242630,-0.196548,0.290839,-0.189953,0.298699,-0.145524,0.324351,-0.139331,0.326304,-0.126307,0.327443,-0.125000,0.327500,-0.081066,0.327500,-0.075936,0.326595,-0.075936,0.326595,$1*%
%AMFreePoly4*
4,1,37,0.242630,0.214095,0.290839,0.196548,0.298699,0.189953,0.324351,0.145524,0.326304,0.139331,0.327443,0.126307,0.327500,0.125000,0.327500,-0.125000,0.326595,-0.130130,0.309048,-0.178339,0.302453,-0.186199,0.258024,-0.211851,0.251831,-0.213804,0.238807,-0.214943,0.237500,-0.215000,-0.031434,-0.215000,-0.036564,-0.214095,-0.084773,-0.196548,-0.089776,-0.193513,-0.094600,-0.189093,
-0.095074,-0.188640,-0.301140,0.017426,-0.304128,0.021694,-0.325810,0.068190,-0.327201,0.073876,-0.327486,0.080413,-0.327500,0.081066,-0.327500,0.125000,-0.326595,0.130130,-0.309048,0.178339,-0.302453,0.186199,-0.258024,0.211851,-0.251831,0.213804,-0.238807,0.214943,-0.237500,0.215000,0.237500,0.215000,0.242630,0.214095,0.242630,0.214095,$1*%
%AMFreePoly5*
4,1,37,0.242630,0.214095,0.290839,0.196548,0.298699,0.189953,0.324351,0.145524,0.326304,0.139331,0.327443,0.126307,0.327500,0.125000,0.327500,-0.125000,0.326595,-0.130130,0.309048,-0.178339,0.302453,-0.186199,0.258024,-0.211851,0.251831,-0.213804,0.238807,-0.214943,0.237500,-0.215000,-0.237500,-0.215000,-0.242630,-0.214095,-0.290839,-0.196548,-0.298699,-0.189953,-0.324351,-0.145524,
-0.326304,-0.139331,-0.327443,-0.126307,-0.327500,-0.125000,-0.327500,-0.081066,-0.326595,-0.075936,-0.309048,-0.027727,-0.306013,-0.022724,-0.301593,-0.017900,-0.301140,-0.017426,-0.095074,0.188640,-0.090806,0.191628,-0.044310,0.213310,-0.038624,0.214701,-0.032087,0.214986,-0.031434,0.215000,0.237500,0.215000,0.242630,0.214095,0.242630,0.214095,$1*%
%AMFreePoly6*
4,1,37,0.130130,0.326595,0.178339,0.309048,0.186199,0.302453,0.211851,0.258024,0.213804,0.251831,0.214943,0.238807,0.215000,0.237500,0.215000,-0.031434,0.214095,-0.036564,0.196548,-0.084773,0.193513,-0.089776,0.189093,-0.094600,0.188640,-0.095074,-0.017426,-0.301140,-0.021694,-0.304128,-0.068190,-0.325810,-0.073876,-0.327201,-0.080413,-0.327486,-0.081066,-0.327500,-0.125000,-0.327500,
-0.130130,-0.326595,-0.178339,-0.309048,-0.186199,-0.302453,-0.211851,-0.258024,-0.213804,-0.251831,-0.214943,-0.238807,-0.215000,-0.237500,-0.215000,0.237500,-0.214095,0.242630,-0.196548,0.290839,-0.189953,0.298699,-0.145524,0.324351,-0.139331,0.326304,-0.126307,0.327443,-0.125000,0.327500,0.125000,0.327500,0.130130,0.326595,0.130130,0.326595,$1*%
%AMFreePoly7*
4,1,37,0.130130,0.326595,0.178339,0.309048,0.186199,0.302453,0.211851,0.258024,0.213804,0.251831,0.214943,0.238807,0.215000,0.237500,0.215000,-0.237500,0.214095,-0.242630,0.196548,-0.290839,0.189953,-0.298699,0.145524,-0.324351,0.139331,-0.326304,0.126307,-0.327443,0.125000,-0.327500,0.081066,-0.327500,0.075936,-0.326595,0.027727,-0.309048,0.022724,-0.306013,0.017900,-0.301593,
0.017426,-0.301140,-0.188640,-0.095074,-0.191628,-0.090806,-0.213310,-0.044310,-0.214701,-0.038624,-0.214986,-0.032087,-0.215000,-0.031434,-0.215000,0.237500,-0.214095,0.242630,-0.196548,0.290839,-0.189953,0.298699,-0.145524,0.324351,-0.139331,0.326304,-0.126307,0.327443,-0.125000,0.327500,0.125000,0.327500,0.130130,0.326595,0.130130,0.326595,$1*%
G04 Aperture macros list end*
%ADD10RoundRect,0.155000X0.180000X-0.155000X0.180000X0.155000X-0.180000X0.155000X-0.180000X-0.155000X0*%
%ADD11RoundRect,0.155000X-0.155000X-0.180000X0.155000X-0.180000X0.155000X0.180000X-0.155000X0.180000X0*%
%ADD12RoundRect,0.015000X-0.450000X-0.400000X0.450000X-0.400000X0.450000X0.400000X-0.450000X0.400000X0*%
%ADD13RoundRect,0.155000X-0.180000X0.155000X-0.180000X-0.155000X0.180000X-0.155000X0.180000X0.155000X0*%
%ADD14RoundRect,0.226250X0.263750X-0.226250X0.263750X0.226250X-0.263750X0.226250X-0.263750X-0.226250X0*%
%ADD15RoundRect,0.155000X0.155000X0.180000X-0.155000X0.180000X-0.155000X-0.180000X0.155000X-0.180000X0*%
%ADD16C,0.360000*%
%ADD17C,4.030000*%
%ADD18C,3.030000*%
%ADD19C,2.030000*%
%ADD20RoundRect,0.015000X1.350010X0.849630X-1.350010X0.849630X-1.350010X-0.849630X1.350010X-0.849630X0*%
%ADD21RoundRect,0.015000X1.350010X0.650240X-1.350010X0.650240X-1.350010X-0.650240X1.350010X-0.650240X0*%
%ADD22RoundRect,0.015000X-0.849630X1.350010X-0.849630X-1.350010X0.849630X-1.350010X0.849630X1.350010X0*%
%ADD23RoundRect,0.015000X-0.650240X1.350010X-0.650240X-1.350010X0.650240X-1.350010X0.650240X1.350010X0*%
%ADD24C,0.430000*%
%ADD25C,1.808000*%
%ADD26RoundRect,0.256000X-1.084000X0.384000X-1.084000X-0.384000X1.084000X-0.384000X1.084000X0.384000X0*%
%ADD27FreePoly0,0.000000*%
%ADD28RoundRect,0.107500X-0.220000X-0.107500X0.220000X-0.107500X0.220000X0.107500X-0.220000X0.107500X0*%
%ADD29RoundRect,0.102500X-0.225000X-0.102500X0.225000X-0.102500X0.225000X0.102500X-0.225000X0.102500X0*%
%ADD30FreePoly1,0.000000*%
%ADD31FreePoly2,0.000000*%
%ADD32RoundRect,0.102500X-0.102500X-0.225000X0.102500X-0.225000X0.102500X0.225000X-0.102500X0.225000X0*%
%ADD33FreePoly3,0.000000*%
%ADD34FreePoly4,0.000000*%
%ADD35FreePoly5,0.000000*%
%ADD36FreePoly6,0.000000*%
%ADD37FreePoly7,0.000000*%
%ADD38RoundRect,0.142500X0.192500X-0.142500X0.192500X0.142500X-0.192500X0.142500X-0.192500X-0.142500X0*%
%ADD39RoundRect,0.232500X0.232500X0.257500X-0.232500X0.257500X-0.232500X-0.257500X0.232500X-0.257500X0*%
%ADD40RoundRect,0.015000X-0.700000X0.800000X-0.700000X-0.800000X0.700000X-0.800000X0.700000X0.800000X0*%
%ADD41RoundRect,0.255357X0.459643X1.459643X-0.459643X1.459643X-0.459643X-1.459643X0.459643X-1.459643X0*%
%ADD42RoundRect,0.142500X-0.192500X0.142500X-0.192500X-0.142500X0.192500X-0.142500X0.192500X0.142500X0*%
%ADD43RoundRect,0.102000X0.150000X0.400000X-0.150000X0.400000X-0.150000X-0.400000X0.150000X-0.400000X0*%
%ADD44RoundRect,0.102000X0.200000X0.400000X-0.200000X0.400000X-0.200000X-0.400000X0.200000X-0.400000X0*%
%ADD45RoundRect,0.015000X-0.800000X-0.700000X0.800000X-0.700000X0.800000X0.700000X-0.800000X0.700000X0*%
%ADD46RoundRect,0.015000X0.600000X-0.600000X0.600000X0.600000X-0.600000X0.600000X-0.600000X-0.600000X0*%
%ADD47RoundRect,0.142500X-0.142500X-0.192500X0.142500X-0.192500X0.142500X0.192500X-0.142500X0.192500X0*%
%ADD48RoundRect,0.015000X-0.850000X0.850000X-0.850000X-0.850000X0.850000X-0.850000X0.850000X0.850000X0*%
%ADD49O,1.730000X1.730000*%
%ADD50RoundRect,0.142500X0.142500X0.192500X-0.142500X0.192500X-0.142500X-0.192500X0.142500X-0.192500X0*%
%ADD51RoundRect,0.232500X0.257500X-0.232500X0.257500X0.232500X-0.257500X0.232500X-0.257500X-0.232500X0*%
%ADD52RoundRect,0.015000X0.700000X-0.800000X0.700000X0.800000X-0.700000X0.800000X-0.700000X-0.800000X0*%
%ADD53RoundRect,0.157500X0.157500X-0.520000X0.157500X0.520000X-0.157500X0.520000X-0.157500X-0.520000X0*%
%ADD54RoundRect,0.015000X0.425000X0.425000X-0.425000X0.425000X-0.425000X-0.425000X0.425000X-0.425000X0*%
%ADD55O,0.880000X0.880000*%
G04 APERTURE END LIST*
D10*
X173424134Y-133596525D03*
X173424134Y-132626525D03*
D11*
X162139134Y-110826525D03*
X163109134Y-110826525D03*
D12*
X145074134Y-137426525D03*
X145074134Y-139326525D03*
X147074134Y-138376525D03*
D10*
X174524134Y-134611525D03*
X174524134Y-133641525D03*
D13*
X143874134Y-137441525D03*
X143874134Y-138411525D03*
D11*
X146339134Y-136076525D03*
X147309134Y-136076525D03*
D14*
X148624134Y-138364025D03*
X148624134Y-136789025D03*
D15*
X161909134Y-124376525D03*
X160939134Y-124376525D03*
X163809134Y-124376525D03*
X162839134Y-124376525D03*
X161909134Y-122476525D03*
X160939134Y-122476525D03*
X163809134Y-122476525D03*
X162839134Y-122476525D03*
X161909134Y-123436525D03*
X160939134Y-123436525D03*
X163799134Y-123436525D03*
X162829134Y-123436525D03*
D16*
X171824134Y-119126525D03*
X171024134Y-119126525D03*
X170224134Y-119126525D03*
X167024134Y-119126525D03*
X166224134Y-119126525D03*
X165424134Y-119126525D03*
X171824134Y-118326525D03*
X171024134Y-118326525D03*
X170224134Y-118326525D03*
X167024134Y-118326525D03*
X166224134Y-118326525D03*
X165424134Y-118326525D03*
X171824134Y-117526525D03*
X171024134Y-117526525D03*
X170224134Y-117526525D03*
X167024134Y-117526525D03*
X166224134Y-117526525D03*
X165424134Y-117526525D03*
X171824134Y-116726525D03*
X171024134Y-116726525D03*
X170224134Y-116726525D03*
X167024134Y-116726525D03*
X166224134Y-116726525D03*
X165424134Y-116726525D03*
X171824134Y-115926525D03*
X171024134Y-115926525D03*
X170224134Y-115926525D03*
X167024134Y-115926525D03*
X166224134Y-115926525D03*
X165424134Y-115926525D03*
X171824134Y-115126525D03*
X171024134Y-115126525D03*
X170224134Y-115126525D03*
X167024134Y-115126525D03*
X166224134Y-115126525D03*
X165424134Y-115126525D03*
X171824134Y-114326525D03*
X171024134Y-114326525D03*
X170224134Y-114326525D03*
X167024134Y-114326525D03*
X166224134Y-114326525D03*
X165424134Y-114326525D03*
X171824134Y-113526525D03*
X171024134Y-113526525D03*
X170224134Y-113526525D03*
X167024134Y-113526525D03*
X166224134Y-113526525D03*
X165424134Y-113526525D03*
X171824134Y-112726525D03*
X171024134Y-112726525D03*
X170224134Y-112726525D03*
X167024134Y-112726525D03*
X166224134Y-112726525D03*
X165424134Y-112726525D03*
X171824134Y-111926525D03*
X171024134Y-111926525D03*
X170224134Y-111926525D03*
X167024134Y-111926525D03*
X166224134Y-111926525D03*
X165424134Y-111926525D03*
X171824134Y-111126525D03*
X171024134Y-111126525D03*
X170224134Y-111126525D03*
X167024134Y-111126525D03*
X166224134Y-111126525D03*
X165424134Y-111126525D03*
X171824134Y-110326525D03*
X171024134Y-110326525D03*
X170224134Y-110326525D03*
X167024134Y-110326525D03*
X166224134Y-110326525D03*
X165424134Y-110326525D03*
X171824134Y-109526525D03*
X171024134Y-109526525D03*
X170224134Y-109526525D03*
X167024134Y-109526525D03*
X166224134Y-109526525D03*
X165424134Y-109526525D03*
X171824134Y-108726525D03*
X171024134Y-108726525D03*
X170224134Y-108726525D03*
X167024134Y-108726525D03*
X166224134Y-108726525D03*
X165424134Y-108726525D03*
X171824134Y-107926525D03*
X171024134Y-107926525D03*
X170224134Y-107926525D03*
X167024134Y-107926525D03*
X166224134Y-107926525D03*
X165424134Y-107926525D03*
X171824134Y-107126525D03*
X171024134Y-107126525D03*
X170224134Y-107126525D03*
X167024134Y-107126525D03*
X166224134Y-107126525D03*
X165424134Y-107126525D03*
D15*
X130459134Y-131576525D03*
X129489134Y-131576525D03*
D13*
X178024134Y-129941525D03*
X178024134Y-130911525D03*
D17*
X117930000Y-125860000D03*
D18*
X105230000Y-121110000D03*
X112850000Y-131020000D03*
X112850000Y-121110000D03*
X105230000Y-131020000D03*
X123010000Y-131020000D03*
X123010000Y-121110000D03*
D19*
X185744134Y-147396525D03*
X185744134Y-144856525D03*
X188284134Y-147396525D03*
X188284134Y-144856525D03*
X190824134Y-147396525D03*
X190824134Y-144856525D03*
X193364134Y-147396525D03*
X193364134Y-144856525D03*
X195904134Y-147396525D03*
X195904134Y-144856525D03*
D15*
X193109134Y-128626525D03*
X192139134Y-128626525D03*
D20*
X189874954Y-128602645D03*
D21*
X189874954Y-126626525D03*
D20*
X189874954Y-124650405D03*
X184373314Y-124650405D03*
D21*
X184373314Y-126626525D03*
D20*
X184373314Y-128602645D03*
D15*
X193109134Y-124626525D03*
X192139134Y-124626525D03*
X151009134Y-135826525D03*
X150039134Y-135826525D03*
D11*
X135739134Y-121526525D03*
X136709134Y-121526525D03*
D22*
X136317216Y-123630190D03*
D23*
X134341096Y-123630190D03*
D22*
X132364976Y-123630190D03*
X132364976Y-129131830D03*
D23*
X134341096Y-129131830D03*
D22*
X136317216Y-129131830D03*
D15*
X132809134Y-121526525D03*
X131839134Y-121526525D03*
X134809134Y-121526525D03*
X133839134Y-121526525D03*
X193109134Y-126626525D03*
X192139134Y-126626525D03*
X134809134Y-145226525D03*
X133839134Y-145226525D03*
D24*
X171024134Y-130226525D03*
X171024134Y-131026525D03*
X171024134Y-131826525D03*
X171024134Y-132626525D03*
X171024134Y-133426525D03*
X171024134Y-134226525D03*
X171024134Y-135026525D03*
X171024134Y-135826525D03*
X171024134Y-136626525D03*
X171024134Y-137426525D03*
X171024134Y-138226525D03*
X171024134Y-139026525D03*
X171024134Y-139826525D03*
X171024134Y-140626525D03*
X171024134Y-141426525D03*
X171024134Y-142226525D03*
X171024134Y-143026525D03*
X171024134Y-143826525D03*
X171024134Y-144626525D03*
X171024134Y-145426525D03*
X171024134Y-146226525D03*
X171024134Y-147026525D03*
X155024134Y-130226525D03*
X155024134Y-131026525D03*
X155024134Y-131826525D03*
X155024134Y-132626525D03*
X155024134Y-133426525D03*
X155024134Y-134226525D03*
X155024134Y-135026525D03*
X155024134Y-135826525D03*
X155024134Y-136626525D03*
X155024134Y-137426525D03*
X155024134Y-138226525D03*
X155024134Y-139026525D03*
X155024134Y-139826525D03*
X155024134Y-140626525D03*
X155024134Y-141426525D03*
X155024134Y-142226525D03*
X155024134Y-143026525D03*
X155024134Y-143826525D03*
X155024134Y-144626525D03*
X155024134Y-145426525D03*
X155024134Y-146226525D03*
X155024134Y-147026525D03*
X154224134Y-130226525D03*
X154224134Y-131026525D03*
X154224134Y-131826525D03*
X154224134Y-132626525D03*
X154224134Y-133426525D03*
X154224134Y-134226525D03*
X154224134Y-135026525D03*
X154224134Y-135826525D03*
X154224134Y-136626525D03*
X154224134Y-137426525D03*
X154224134Y-138226525D03*
X154224134Y-139026525D03*
X154224134Y-139826525D03*
X154224134Y-140626525D03*
X154224134Y-141426525D03*
X154224134Y-142226525D03*
X154224134Y-143026525D03*
X154224134Y-143826525D03*
X154224134Y-144626525D03*
X154224134Y-145426525D03*
X154224134Y-146226525D03*
X154224134Y-147026525D03*
X170224134Y-130226525D03*
X170224134Y-131026525D03*
X170224134Y-131826525D03*
X170224134Y-132626525D03*
X170224134Y-133426525D03*
X170224134Y-134226525D03*
X170224134Y-135026525D03*
X170224134Y-135826525D03*
X170224134Y-136626525D03*
X170224134Y-137426525D03*
X170224134Y-138226525D03*
X170224134Y-139026525D03*
X170224134Y-139826525D03*
X170224134Y-140626525D03*
X170224134Y-141426525D03*
X170224134Y-142226525D03*
X170224134Y-143026525D03*
X170224134Y-143826525D03*
X170224134Y-144626525D03*
X170224134Y-145426525D03*
X170224134Y-146226525D03*
X170224134Y-147026525D03*
X169424134Y-130226525D03*
X169424134Y-131026525D03*
X169424134Y-131826525D03*
X169424134Y-132626525D03*
X169424134Y-133426525D03*
X169424134Y-134226525D03*
X169424134Y-135026525D03*
X169424134Y-135826525D03*
X169424134Y-136626525D03*
X169424134Y-137426525D03*
X169424134Y-138226525D03*
X169424134Y-139026525D03*
X169424134Y-139826525D03*
X169424134Y-140626525D03*
X169424134Y-141426525D03*
X169424134Y-142226525D03*
X169424134Y-143026525D03*
X169424134Y-143826525D03*
X169424134Y-144626525D03*
X169424134Y-145426525D03*
X169424134Y-146226525D03*
X169424134Y-147026525D03*
X168624134Y-130226525D03*
X168624134Y-131026525D03*
X168624134Y-131826525D03*
X168624134Y-132626525D03*
X168624134Y-133426525D03*
X168624134Y-134226525D03*
X168624134Y-135026525D03*
X168624134Y-135826525D03*
X168624134Y-136626525D03*
X168624134Y-137426525D03*
X168624134Y-138226525D03*
X168624134Y-139026525D03*
X168624134Y-139826525D03*
X168624134Y-140626525D03*
X168624134Y-141426525D03*
X168624134Y-142226525D03*
X168624134Y-143026525D03*
X168624134Y-143826525D03*
X168624134Y-144626525D03*
X168624134Y-145426525D03*
X168624134Y-146226525D03*
X168624134Y-147026525D03*
X167824134Y-130226525D03*
X167824134Y-131026525D03*
X167824134Y-131826525D03*
X167824134Y-132626525D03*
X167824134Y-133426525D03*
X167824134Y-134226525D03*
X167824134Y-135026525D03*
X167824134Y-135826525D03*
X167824134Y-136626525D03*
X167824134Y-137426525D03*
X167824134Y-138226525D03*
X167824134Y-139026525D03*
X167824134Y-139826525D03*
X167824134Y-140626525D03*
X167824134Y-141426525D03*
X167824134Y-142226525D03*
X167824134Y-143026525D03*
X167824134Y-143826525D03*
X167824134Y-144626525D03*
X167824134Y-145426525D03*
X167824134Y-146226525D03*
X167824134Y-147026525D03*
X167024134Y-130226525D03*
X167024134Y-131026525D03*
X167024134Y-131826525D03*
X167024134Y-132626525D03*
X167024134Y-133426525D03*
X167024134Y-134226525D03*
X167024134Y-135026525D03*
X167024134Y-135826525D03*
X167024134Y-136626525D03*
X167024134Y-137426525D03*
X167024134Y-138226525D03*
X167024134Y-139026525D03*
X167024134Y-139826525D03*
X167024134Y-140626525D03*
X167024134Y-141426525D03*
X167024134Y-142226525D03*
X167024134Y-143026525D03*
X167024134Y-143826525D03*
X167024134Y-144626525D03*
X167024134Y-145426525D03*
X167024134Y-146226525D03*
X167024134Y-147026525D03*
X166224134Y-130226525D03*
X166224134Y-131026525D03*
X166224134Y-131826525D03*
X166224134Y-132626525D03*
X166224134Y-133426525D03*
X166224134Y-134226525D03*
X166224134Y-135026525D03*
X166224134Y-135826525D03*
X166224134Y-136626525D03*
X166224134Y-137426525D03*
X166224134Y-138226525D03*
X166224134Y-139026525D03*
X166224134Y-139826525D03*
X166224134Y-140626525D03*
X166224134Y-141426525D03*
X166224134Y-142226525D03*
X166224134Y-143026525D03*
X166224134Y-143826525D03*
X166224134Y-144626525D03*
X166224134Y-145426525D03*
X166224134Y-146226525D03*
X166224134Y-147026525D03*
X165424134Y-130226525D03*
X165424134Y-131026525D03*
X165424134Y-131826525D03*
X165424134Y-132626525D03*
X165424134Y-133426525D03*
X165424134Y-134226525D03*
X165424134Y-135026525D03*
X165424134Y-135826525D03*
X165424134Y-136626525D03*
X165424134Y-137426525D03*
X165424134Y-138226525D03*
X165424134Y-139026525D03*
X165424134Y-139826525D03*
X165424134Y-140626525D03*
X165424134Y-141426525D03*
X165424134Y-142226525D03*
X165424134Y-143026525D03*
X165424134Y-143826525D03*
X165424134Y-144626525D03*
X165424134Y-145426525D03*
X165424134Y-146226525D03*
X165424134Y-147026525D03*
X164624134Y-130226525D03*
X164624134Y-131026525D03*
X164624134Y-131826525D03*
X164624134Y-132626525D03*
X164624134Y-133426525D03*
X164624134Y-134226525D03*
X164624134Y-135026525D03*
X164624134Y-135826525D03*
X164624134Y-136626525D03*
X164624134Y-137426525D03*
X164624134Y-138226525D03*
X164624134Y-139026525D03*
X164624134Y-139826525D03*
X164624134Y-140626525D03*
X164624134Y-141426525D03*
X164624134Y-142226525D03*
X164624134Y-143026525D03*
X164624134Y-143826525D03*
X164624134Y-144626525D03*
X164624134Y-145426525D03*
X164624134Y-146226525D03*
X164624134Y-147026525D03*
X163824134Y-130226525D03*
X163824134Y-131026525D03*
X163824134Y-131826525D03*
X163824134Y-132626525D03*
X163824134Y-133426525D03*
X163824134Y-134226525D03*
X163824134Y-135026525D03*
X163824134Y-135826525D03*
X163824134Y-136626525D03*
X163824134Y-137426525D03*
X163824134Y-138226525D03*
X163824134Y-139026525D03*
X163824134Y-139826525D03*
X163824134Y-140626525D03*
X163824134Y-141426525D03*
X163824134Y-142226525D03*
X163824134Y-143026525D03*
X163824134Y-143826525D03*
X163824134Y-144626525D03*
X163824134Y-145426525D03*
X163824134Y-146226525D03*
X163824134Y-147026525D03*
X163024134Y-130226525D03*
X163024134Y-131026525D03*
X163024134Y-131826525D03*
X163024134Y-132626525D03*
X163024134Y-133426525D03*
X163024134Y-134226525D03*
X163024134Y-135026525D03*
X163024134Y-135826525D03*
X163024134Y-136626525D03*
X163024134Y-137426525D03*
X163024134Y-138226525D03*
X163024134Y-139026525D03*
X163024134Y-139826525D03*
X163024134Y-140626525D03*
X163024134Y-141426525D03*
X163024134Y-142226525D03*
X163024134Y-143026525D03*
X163024134Y-143826525D03*
X163024134Y-144626525D03*
X163024134Y-145426525D03*
X163024134Y-146226525D03*
X163024134Y-147026525D03*
X162224134Y-130226525D03*
X162224134Y-131026525D03*
X162224134Y-131826525D03*
X162224134Y-132626525D03*
X162224134Y-133426525D03*
X162224134Y-134226525D03*
X162224134Y-135026525D03*
X162224134Y-135826525D03*
X162224134Y-136626525D03*
X162224134Y-137426525D03*
X162224134Y-138226525D03*
X162224134Y-139026525D03*
X162224134Y-139826525D03*
X162224134Y-140626525D03*
X162224134Y-141426525D03*
X162224134Y-142226525D03*
X162224134Y-143026525D03*
X162224134Y-143826525D03*
X162224134Y-144626525D03*
X162224134Y-145426525D03*
X162224134Y-146226525D03*
X162224134Y-147026525D03*
X161424134Y-130226525D03*
X161424134Y-131026525D03*
X161424134Y-131826525D03*
X161424134Y-132626525D03*
X161424134Y-133426525D03*
X161424134Y-134226525D03*
X161424134Y-135026525D03*
X161424134Y-135826525D03*
X161424134Y-136626525D03*
X161424134Y-137426525D03*
X161424134Y-138226525D03*
X161424134Y-139026525D03*
X161424134Y-139826525D03*
X161424134Y-140626525D03*
X161424134Y-141426525D03*
X161424134Y-142226525D03*
X161424134Y-143026525D03*
X161424134Y-143826525D03*
X161424134Y-144626525D03*
X161424134Y-145426525D03*
X161424134Y-146226525D03*
X161424134Y-147026525D03*
X160624134Y-130226525D03*
X160624134Y-131026525D03*
X160624134Y-131826525D03*
X160624134Y-132626525D03*
X160624134Y-133426525D03*
X160624134Y-134226525D03*
X160624134Y-135026525D03*
X160624134Y-135826525D03*
X160624134Y-136626525D03*
X160624134Y-137426525D03*
X160624134Y-138226525D03*
X160624134Y-139026525D03*
X160624134Y-139826525D03*
X160624134Y-140626525D03*
X160624134Y-141426525D03*
X160624134Y-142226525D03*
X160624134Y-143026525D03*
X160624134Y-143826525D03*
X160624134Y-144626525D03*
X160624134Y-145426525D03*
X160624134Y-146226525D03*
X160624134Y-147026525D03*
X159824134Y-130226525D03*
X159824134Y-131026525D03*
X159824134Y-131826525D03*
X159824134Y-132626525D03*
X159824134Y-133426525D03*
X159824134Y-134226525D03*
X159824134Y-135026525D03*
X159824134Y-135826525D03*
X159824134Y-136626525D03*
X159824134Y-137426525D03*
X159824134Y-138226525D03*
X159824134Y-139026525D03*
X159824134Y-139826525D03*
X159824134Y-140626525D03*
X159824134Y-141426525D03*
X159824134Y-142226525D03*
X159824134Y-143026525D03*
X159824134Y-143826525D03*
X159824134Y-144626525D03*
X159824134Y-145426525D03*
X159824134Y-146226525D03*
X159824134Y-147026525D03*
X159024134Y-130226525D03*
X159024134Y-131026525D03*
X159024134Y-131826525D03*
X159024134Y-132626525D03*
X159024134Y-133426525D03*
X159024134Y-134226525D03*
X159024134Y-135026525D03*
X159024134Y-135826525D03*
X159024134Y-136626525D03*
X159024134Y-137426525D03*
X159024134Y-138226525D03*
X159024134Y-139026525D03*
X159024134Y-139826525D03*
X159024134Y-140626525D03*
X159024134Y-141426525D03*
X159024134Y-142226525D03*
X159024134Y-143026525D03*
X159024134Y-143826525D03*
X159024134Y-144626525D03*
X159024134Y-145426525D03*
X159024134Y-146226525D03*
X159024134Y-147026525D03*
X158224134Y-130226525D03*
X158224134Y-131026525D03*
X158224134Y-131826525D03*
X158224134Y-132626525D03*
X158224134Y-133426525D03*
X158224134Y-134226525D03*
X158224134Y-135026525D03*
X158224134Y-135826525D03*
X158224134Y-136626525D03*
X158224134Y-137426525D03*
X158224134Y-138226525D03*
X158224134Y-139026525D03*
X158224134Y-139826525D03*
X158224134Y-140626525D03*
X158224134Y-141426525D03*
X158224134Y-142226525D03*
X158224134Y-143026525D03*
X158224134Y-143826525D03*
X158224134Y-144626525D03*
X158224134Y-145426525D03*
X158224134Y-146226525D03*
X158224134Y-147026525D03*
X157424134Y-130226525D03*
X157424134Y-131026525D03*
X157424134Y-131826525D03*
X157424134Y-132626525D03*
X157424134Y-133426525D03*
X157424134Y-134226525D03*
X157424134Y-135026525D03*
X157424134Y-135826525D03*
X157424134Y-136626525D03*
X157424134Y-137426525D03*
X157424134Y-138226525D03*
X157424134Y-139026525D03*
X157424134Y-139826525D03*
X157424134Y-140626525D03*
X157424134Y-141426525D03*
X157424134Y-142226525D03*
X157424134Y-143026525D03*
X157424134Y-143826525D03*
X157424134Y-144626525D03*
X157424134Y-145426525D03*
X157424134Y-146226525D03*
X157424134Y-147026525D03*
X156624134Y-130226525D03*
X156624134Y-131026525D03*
X156624134Y-131826525D03*
X156624134Y-132626525D03*
X156624134Y-133426525D03*
X156624134Y-134226525D03*
X156624134Y-135026525D03*
X156624134Y-135826525D03*
X156624134Y-136626525D03*
X156624134Y-137426525D03*
X156624134Y-138226525D03*
X156624134Y-139026525D03*
X156624134Y-139826525D03*
X156624134Y-140626525D03*
X156624134Y-141426525D03*
X156624134Y-142226525D03*
X156624134Y-143026525D03*
X156624134Y-143826525D03*
X156624134Y-144626525D03*
X156624134Y-145426525D03*
X156624134Y-146226525D03*
X156624134Y-147026525D03*
X155824134Y-130226525D03*
X155824134Y-131026525D03*
X155824134Y-131826525D03*
X155824134Y-132626525D03*
X155824134Y-133426525D03*
X155824134Y-134226525D03*
X155824134Y-135026525D03*
X155824134Y-135826525D03*
X155824134Y-136626525D03*
X155824134Y-137426525D03*
X155824134Y-138226525D03*
X155824134Y-139026525D03*
X155824134Y-139826525D03*
X155824134Y-140626525D03*
X155824134Y-141426525D03*
X155824134Y-142226525D03*
X155824134Y-143026525D03*
X155824134Y-143826525D03*
X155824134Y-144626525D03*
X155824134Y-145426525D03*
X155824134Y-146226525D03*
X155824134Y-147026525D03*
D25*
X188224134Y-142126525D03*
X185684134Y-142126525D03*
X183144134Y-142126525D03*
X180604134Y-142126525D03*
X178064134Y-142126525D03*
X175524134Y-142126525D03*
D26*
X155524134Y-125026525D03*
X155524134Y-127826525D03*
D13*
X133940000Y-143300000D03*
X133940000Y-144270000D03*
D27*
X131436635Y-140601526D03*
D28*
X131436635Y-141101526D03*
D29*
X131436635Y-141601526D03*
D30*
X131436635Y-142101526D03*
D31*
X132099135Y-142264026D03*
D32*
X132599135Y-142264026D03*
D33*
X133099135Y-142264026D03*
D34*
X133761635Y-142101526D03*
D29*
X133761635Y-141601526D03*
X133761635Y-141111526D03*
D35*
X133761635Y-140601526D03*
D36*
X133099135Y-140439026D03*
D32*
X132599135Y-140439026D03*
D37*
X132099135Y-140439026D03*
D10*
X162524134Y-105911525D03*
X162524134Y-104941525D03*
D38*
X121904134Y-114120000D03*
X121904134Y-113100000D03*
D39*
X154895000Y-152940000D03*
X153345000Y-152940000D03*
D40*
X124914134Y-103990000D03*
X124914134Y-111190000D03*
X121914134Y-103990000D03*
X121914134Y-111190000D03*
D41*
X163390000Y-156450000D03*
X159290000Y-156450000D03*
D42*
X120904134Y-101180000D03*
X120904134Y-102200000D03*
D43*
X150685000Y-157250000D03*
X150185000Y-157250000D03*
X149685000Y-157250000D03*
X149185000Y-157250000D03*
X148685000Y-157250000D03*
X148185000Y-157250000D03*
X147685000Y-157250000D03*
X147185000Y-157250000D03*
X146685000Y-157250000D03*
X146185000Y-157250000D03*
X145685000Y-157250000D03*
X145185000Y-157250000D03*
X144685000Y-157250000D03*
X144185000Y-157250000D03*
X143685000Y-157250000D03*
X143185000Y-157250000D03*
X142685000Y-157250000D03*
X142185000Y-157250000D03*
X141685000Y-157250000D03*
X141185000Y-157250000D03*
X140685000Y-157250000D03*
X140185000Y-157250000D03*
X139685000Y-157250000D03*
X139185000Y-157250000D03*
X138685000Y-157250000D03*
X138185000Y-157250000D03*
X137685000Y-157250000D03*
X137185000Y-157250000D03*
X136685000Y-157250000D03*
X136185000Y-157250000D03*
X135685000Y-157250000D03*
X135185000Y-157250000D03*
X134685000Y-157250000D03*
X134185000Y-157250000D03*
X133685000Y-157250000D03*
X133185000Y-157250000D03*
X132685000Y-157250000D03*
X132185000Y-157250000D03*
X131685000Y-157250000D03*
X131185000Y-157250000D03*
D44*
X151635000Y-154750000D03*
X130235000Y-154750000D03*
D41*
X192230000Y-100290000D03*
X188130000Y-100290000D03*
D45*
X111454134Y-113460000D03*
X118654134Y-113460000D03*
X111454134Y-116460000D03*
X118654134Y-116460000D03*
D46*
X155890000Y-157490000D03*
X155890000Y-154690000D03*
D47*
X107014134Y-112940000D03*
X108034134Y-112940000D03*
D48*
X220960000Y-158140000D03*
D49*
X218420000Y-158140000D03*
X215880000Y-158140000D03*
X213340000Y-158140000D03*
X210800000Y-158140000D03*
X208260000Y-158140000D03*
D50*
X121644134Y-116400000D03*
X120624134Y-116400000D03*
D47*
X163970000Y-159140000D03*
X164990000Y-159140000D03*
D38*
X167000000Y-159120000D03*
X167000000Y-158100000D03*
D51*
X153665000Y-157490000D03*
X153665000Y-155940000D03*
D52*
X105064134Y-111190000D03*
X105064134Y-103990000D03*
X108064134Y-111190000D03*
X108064134Y-103990000D03*
D53*
X166047500Y-156587500D03*
X166997500Y-156587500D03*
X167947500Y-156587500D03*
X167947500Y-154312500D03*
X166997500Y-154312500D03*
X166047500Y-154312500D03*
D38*
X108164134Y-102100000D03*
X108164134Y-101080000D03*
D50*
X109654134Y-116470000D03*
X108634134Y-116470000D03*
D45*
X111444134Y-98750000D03*
X118644134Y-98750000D03*
X111444134Y-101750000D03*
X118644134Y-101750000D03*
D38*
X122344134Y-102220000D03*
X122344134Y-101200000D03*
D42*
X109464134Y-100990000D03*
X109464134Y-102010000D03*
D54*
X170820000Y-154830000D03*
D55*
X170820000Y-155830000D03*
M02*
