G04 #@! TF.GenerationSoftware,KiCad,Pcbnew,8.0.6-8.0.6-0~ubuntu24.04.1*
G04 #@! TF.CreationDate,2025-03-07T13:19:29+05:30*
G04 #@! TF.ProjectId,DFTBoard,44465442-6f61-4726-942e-6b696361645f,rev?*
G04 #@! TF.SameCoordinates,Original*
G04 #@! TF.FileFunction,Soldermask,Bot*
G04 #@! TF.FilePolarity,Negative*
%FSLAX46Y46*%
G04 Gerber Fmt 4.6, Leading zero omitted, Abs format (unit mm)*
G04 Created by KiCad (PCBNEW 8.0.6-8.0.6-0~ubuntu24.04.1) date 2025-03-07 13:19:29*
%MOMM*%
%LPD*%
G01*
G04 APERTURE LIST*
G04 Aperture macros list*
%AMRoundRect*
0 Rectangle with rounded corners*
0 $1 Rounding radius*
0 $2 $3 $4 $5 $6 $7 $8 $9 X,Y pos of 4 corners*
0 Add a 4 corners polygon primitive as box body*
4,1,4,$2,$3,$4,$5,$6,$7,$8,$9,$2,$3,0*
0 Add four circle primitives for the rounded corners*
1,1,$1+$1,$2,$3*
1,1,$1+$1,$4,$5*
1,1,$1+$1,$6,$7*
1,1,$1+$1,$8,$9*
0 Add four rect primitives between the rounded corners*
20,1,$1+$1,$2,$3,$4,$5,0*
20,1,$1+$1,$4,$5,$6,$7,0*
20,1,$1+$1,$6,$7,$8,$9,0*
20,1,$1+$1,$8,$9,$2,$3,0*%
G04 Aperture macros list end*
%ADD10C,0.000000*%
%ADD11C,4.030000*%
%ADD12C,3.030000*%
%ADD13C,2.030000*%
%ADD14C,1.808000*%
%ADD15RoundRect,0.015000X-0.850000X0.850000X-0.850000X-0.850000X0.850000X-0.850000X0.850000X0.850000X0*%
%ADD16O,1.730000X1.730000*%
%ADD17RoundRect,0.015000X0.325000X-0.425000X0.325000X0.425000X-0.325000X0.425000X-0.325000X-0.425000X0*%
%ADD18RoundRect,0.155000X0.155000X0.180000X-0.155000X0.180000X-0.155000X-0.180000X0.155000X-0.180000X0*%
%ADD19RoundRect,0.155000X-0.180000X0.155000X-0.180000X-0.155000X0.180000X-0.155000X0.180000X0.155000X0*%
%ADD20RoundRect,0.155000X-0.155000X-0.180000X0.155000X-0.180000X0.155000X0.180000X-0.155000X0.180000X0*%
%ADD21RoundRect,0.226250X0.263750X-0.226250X0.263750X0.226250X-0.263750X0.226250X-0.263750X-0.226250X0*%
%ADD22RoundRect,0.256000X-1.084000X0.384000X-1.084000X-0.384000X1.084000X-0.384000X1.084000X0.384000X0*%
%ADD23RoundRect,0.256000X-0.634000X0.384000X-0.634000X-0.384000X0.634000X-0.384000X0.634000X0.384000X0*%
%ADD24RoundRect,0.256666X-1.458334X0.320834X-1.458334X-0.320834X1.458334X-0.320834X1.458334X0.320834X0*%
%ADD25RoundRect,0.015000X0.450000X0.400000X-0.450000X0.400000X-0.450000X-0.400000X0.450000X-0.400000X0*%
%ADD26RoundRect,0.155000X0.180000X-0.155000X0.180000X0.155000X-0.180000X0.155000X-0.180000X-0.155000X0*%
%ADD27RoundRect,0.015000X-0.530000X-0.325000X0.530000X-0.325000X0.530000X0.325000X-0.530000X0.325000X0*%
%ADD28RoundRect,0.256000X0.384000X1.084000X-0.384000X1.084000X-0.384000X-1.084000X0.384000X-1.084000X0*%
%ADD29RoundRect,0.226250X-0.263750X0.226250X-0.263750X-0.226250X0.263750X-0.226250X0.263750X0.226250X0*%
%ADD30RoundRect,0.251250X-0.251250X-0.463750X0.251250X-0.463750X0.251250X0.463750X-0.251250X0.463750X0*%
%ADD31RoundRect,0.015000X0.425000X0.140000X-0.425000X0.140000X-0.425000X-0.140000X0.425000X-0.140000X0*%
%ADD32RoundRect,0.015000X0.140000X0.350000X-0.140000X0.350000X-0.140000X-0.350000X0.140000X-0.350000X0*%
%ADD33RoundRect,0.015000X0.825000X1.200000X-0.825000X1.200000X-0.825000X-1.200000X0.825000X-1.200000X0*%
%ADD34RoundRect,0.226250X0.226250X0.263750X-0.226250X0.263750X-0.226250X-0.263750X0.226250X-0.263750X0*%
%ADD35RoundRect,0.070000X0.320000X0.070000X-0.320000X0.070000X-0.320000X-0.070000X0.320000X-0.070000X0*%
%ADD36RoundRect,0.070000X0.070000X0.320000X-0.070000X0.320000X-0.070000X-0.320000X0.070000X-0.320000X0*%
%ADD37RoundRect,0.252054X1.587946X1.587946X-1.587946X1.587946X-1.587946X-1.587946X1.587946X-1.587946X0*%
%ADD38RoundRect,0.226250X-0.226250X-0.263750X0.226250X-0.263750X0.226250X0.263750X-0.226250X0.263750X0*%
%ADD39RoundRect,0.015000X0.530000X0.325000X-0.530000X0.325000X-0.530000X-0.325000X0.530000X-0.325000X0*%
%ADD40RoundRect,0.256666X-0.320834X-1.458334X0.320834X-1.458334X0.320834X1.458334X-0.320834X1.458334X0*%
%ADD41RoundRect,0.015000X0.400000X-0.450000X0.400000X0.450000X-0.400000X0.450000X-0.400000X-0.450000X0*%
%ADD42RoundRect,0.015000X-0.325000X0.530000X-0.325000X-0.530000X0.325000X-0.530000X0.325000X0.530000X0*%
%ADD43RoundRect,0.015000X-0.125000X0.250000X-0.125000X-0.250000X0.125000X-0.250000X0.125000X0.250000X0*%
%ADD44RoundRect,0.015000X-0.800000X0.450000X-0.800000X-0.450000X0.800000X-0.450000X0.800000X0.450000X0*%
%ADD45RoundRect,0.251250X-0.463750X0.251250X-0.463750X-0.251250X0.463750X-0.251250X0.463750X0.251250X0*%
%ADD46RoundRect,0.015000X-0.400000X0.450000X-0.400000X-0.450000X0.400000X-0.450000X0.400000X0.450000X0*%
%ADD47RoundRect,0.015000X0.350000X0.875000X-0.350000X0.875000X-0.350000X-0.875000X0.350000X-0.875000X0*%
%ADD48RoundRect,0.015000X0.650000X0.750000X-0.650000X0.750000X-0.650000X-0.750000X0.650000X-0.750000X0*%
%ADD49RoundRect,0.015000X0.750000X0.750000X-0.750000X0.750000X-0.750000X-0.750000X0.750000X-0.750000X0*%
%ADD50RoundRect,0.015000X0.400000X0.700000X-0.400000X0.700000X-0.400000X-0.700000X0.400000X-0.700000X0*%
%ADD51RoundRect,0.015000X0.500000X0.775000X-0.500000X0.775000X-0.500000X-0.775000X0.500000X-0.775000X0*%
%ADD52RoundRect,0.015000X0.750000X0.400000X-0.750000X0.400000X-0.750000X-0.400000X0.750000X-0.400000X0*%
%ADD53RoundRect,0.015000X0.400000X0.750000X-0.400000X0.750000X-0.400000X-0.750000X0.400000X-0.750000X0*%
%ADD54RoundRect,0.251250X0.463750X-0.251250X0.463750X0.251250X-0.463750X0.251250X-0.463750X-0.251250X0*%
%ADD55RoundRect,0.255555X-0.434445X-1.434445X0.434445X-1.434445X0.434445X1.434445X-0.434445X1.434445X0*%
%ADD56RoundRect,0.255555X1.434445X-0.434445X1.434445X0.434445X-1.434445X0.434445X-1.434445X-0.434445X0*%
%ADD57RoundRect,0.240000X-0.000010X0.250000X-0.000010X-0.250000X0.000010X-0.250000X0.000010X0.250000X0*%
%ADD58RoundRect,0.232500X-0.257500X0.232500X-0.257500X-0.232500X0.257500X-0.232500X0.257500X0.232500X0*%
%ADD59RoundRect,0.015000X0.425000X0.425000X-0.425000X0.425000X-0.425000X-0.425000X0.425000X-0.425000X0*%
%ADD60O,0.880000X0.880000*%
%ADD61RoundRect,0.015000X-0.350000X-0.875000X0.350000X-0.875000X0.350000X0.875000X-0.350000X0.875000X0*%
%ADD62RoundRect,0.015000X-0.650000X-0.750000X0.650000X-0.750000X0.650000X0.750000X-0.650000X0.750000X0*%
%ADD63RoundRect,0.015000X-0.750000X-0.750000X0.750000X-0.750000X0.750000X0.750000X-0.750000X0.750000X0*%
%ADD64RoundRect,0.015000X-0.400000X-0.700000X0.400000X-0.700000X0.400000X0.700000X-0.400000X0.700000X0*%
%ADD65RoundRect,0.015000X-0.500000X-0.775000X0.500000X-0.775000X0.500000X0.775000X-0.500000X0.775000X0*%
%ADD66RoundRect,0.015000X-0.750000X-0.400000X0.750000X-0.400000X0.750000X0.400000X-0.750000X0.400000X0*%
%ADD67RoundRect,0.015000X-0.400000X-0.750000X0.400000X-0.750000X0.400000X0.750000X-0.400000X0.750000X0*%
%ADD68RoundRect,0.142500X0.142500X0.192500X-0.142500X0.192500X-0.142500X-0.192500X0.142500X-0.192500X0*%
G04 APERTURE END LIST*
D10*
G36*
X182599134Y-136126525D02*
G01*
X177849134Y-136126525D01*
X177849134Y-131526525D01*
X182599134Y-131526525D01*
X182599134Y-136126525D01*
G37*
D11*
X117930000Y-125860000D03*
D12*
X105230000Y-121110000D03*
X112850000Y-131020000D03*
X112850000Y-121110000D03*
X105230000Y-131020000D03*
X123010000Y-131020000D03*
X123010000Y-121110000D03*
D13*
X185744134Y-147396525D03*
X185744134Y-144856525D03*
X188284134Y-147396525D03*
X188284134Y-144856525D03*
X190824134Y-147396525D03*
X190824134Y-144856525D03*
X193364134Y-147396525D03*
X193364134Y-144856525D03*
X195904134Y-147396525D03*
X195904134Y-144856525D03*
D14*
X188224134Y-142126525D03*
X185684134Y-142126525D03*
X183144134Y-142126525D03*
X180604134Y-142126525D03*
X178064134Y-142126525D03*
X175524134Y-142126525D03*
D15*
X220960000Y-158140000D03*
D16*
X218420000Y-158140000D03*
X215880000Y-158140000D03*
X213340000Y-158140000D03*
X210800000Y-158140000D03*
X208260000Y-158140000D03*
D17*
X180149134Y-126601525D03*
X178499134Y-126601525D03*
X178499134Y-125051525D03*
X180149134Y-125051525D03*
D18*
X157759134Y-109926525D03*
X156789134Y-109926525D03*
X155459134Y-109076525D03*
X154489134Y-109076525D03*
X158559134Y-108426525D03*
X157589134Y-108426525D03*
X153559134Y-108276525D03*
X152589134Y-108276525D03*
X158559134Y-107476525D03*
X157589134Y-107476525D03*
D19*
X155574134Y-111191525D03*
X155574134Y-112161525D03*
D20*
X155539134Y-108126525D03*
X156509134Y-108126525D03*
D18*
X155459134Y-110026525D03*
X154489134Y-110026525D03*
D20*
X154489134Y-107176525D03*
X155459134Y-107176525D03*
D19*
X157674134Y-111891525D03*
X157674134Y-112861525D03*
D18*
X158609134Y-110876525D03*
X157639134Y-110876525D03*
D20*
X160139134Y-111676525D03*
X161109134Y-111676525D03*
D19*
X181574134Y-138691525D03*
X181574134Y-139661525D03*
D20*
X172339134Y-135426525D03*
X173309134Y-135426525D03*
D19*
X168224134Y-133741525D03*
X168224134Y-134711525D03*
D21*
X194310000Y-100527500D03*
X194310000Y-98952500D03*
D22*
X145724134Y-146526525D03*
X145724134Y-149326525D03*
D23*
X143074134Y-135426525D03*
X143074134Y-138226525D03*
D24*
X146624134Y-140489025D03*
X146624134Y-144764025D03*
D25*
X191024134Y-128376525D03*
X191024134Y-130276525D03*
X189024134Y-129326525D03*
X187024134Y-125676525D03*
X187024134Y-127576525D03*
X185024134Y-126626525D03*
X190924134Y-122976525D03*
X190924134Y-124876525D03*
X188924134Y-123926525D03*
D19*
X153024134Y-140841525D03*
X153024134Y-141811525D03*
X192224134Y-128841525D03*
X192224134Y-129811525D03*
X188224134Y-126141525D03*
X188224134Y-127111525D03*
X192124134Y-123441525D03*
X192124134Y-124411525D03*
D20*
X160139134Y-105976525D03*
X161109134Y-105976525D03*
D26*
X177350000Y-126005000D03*
X177350000Y-125035000D03*
D27*
X127524134Y-128276525D03*
X127524134Y-127326525D03*
X127524134Y-126376525D03*
X129724134Y-126376525D03*
X129724134Y-127326525D03*
X129724134Y-128276525D03*
D26*
X164124134Y-145911525D03*
X164124134Y-144941525D03*
D18*
X144009134Y-140326525D03*
X143039134Y-140326525D03*
D20*
X191739134Y-131626525D03*
X192709134Y-131626525D03*
D19*
X172224134Y-113841525D03*
X172224134Y-114811525D03*
D26*
X165724134Y-134711525D03*
X165724134Y-133741525D03*
D18*
X160909134Y-134726525D03*
X159939134Y-134726525D03*
D19*
X184834134Y-139436525D03*
X184834134Y-140406525D03*
D18*
X165795000Y-111490000D03*
X164825000Y-111490000D03*
D26*
X156124134Y-140386525D03*
X156124134Y-139416525D03*
X158624134Y-138011525D03*
X158624134Y-137041525D03*
D28*
X148824134Y-138026525D03*
X146024134Y-138026525D03*
D18*
X127609134Y-135326525D03*
X126639134Y-135326525D03*
D29*
X144424134Y-111939025D03*
X144424134Y-113514025D03*
D22*
X150224134Y-145326525D03*
X150224134Y-148126525D03*
D26*
X176224134Y-127511525D03*
X176224134Y-126541525D03*
D30*
X164086634Y-143026525D03*
X165961634Y-143026525D03*
D26*
X168224134Y-139461525D03*
X168224134Y-138491525D03*
D18*
X162709134Y-144226525D03*
X161739134Y-144226525D03*
D26*
X165124134Y-145911525D03*
X165124134Y-144941525D03*
D20*
X157739134Y-144226525D03*
X158709134Y-144226525D03*
D18*
X171409134Y-146626525D03*
X170439134Y-146626525D03*
D20*
X169739134Y-144226525D03*
X170709134Y-144226525D03*
D26*
X167424134Y-146711525D03*
X167424134Y-145741525D03*
D20*
X154539134Y-137026525D03*
X155509134Y-137026525D03*
D26*
X168224134Y-144311525D03*
X168224134Y-143341525D03*
D18*
X161109134Y-142626525D03*
X160139134Y-142626525D03*
D20*
X165739134Y-137076525D03*
X166709134Y-137076525D03*
X164939134Y-138526525D03*
X165909134Y-138526525D03*
D26*
X157850000Y-132500000D03*
X157850000Y-131530000D03*
X161974134Y-140261525D03*
X161974134Y-139291525D03*
D20*
X159339134Y-139226525D03*
X160309134Y-139226525D03*
X169739134Y-133826525D03*
X170709134Y-133826525D03*
X160939134Y-133726525D03*
X161909134Y-133726525D03*
D19*
X150224134Y-106841525D03*
X150224134Y-107811525D03*
D20*
X158515000Y-136110000D03*
X159485000Y-136110000D03*
D26*
X154624134Y-113211525D03*
X154624134Y-112241525D03*
D20*
X162539134Y-137976525D03*
X163509134Y-137976525D03*
D31*
X148939134Y-108836525D03*
X148939134Y-109336525D03*
X148939134Y-109836525D03*
X148939134Y-110336525D03*
X148939134Y-110836525D03*
X145989134Y-110836525D03*
X145989134Y-110336525D03*
X145989134Y-109836525D03*
X145989134Y-109336525D03*
X145989134Y-108836525D03*
D32*
X147714134Y-111386525D03*
X147714134Y-108286525D03*
D33*
X147464134Y-109836525D03*
D32*
X147214134Y-111386525D03*
X147214134Y-108286525D03*
D26*
X141524134Y-109711525D03*
X141524134Y-108741525D03*
D19*
X144624134Y-107141525D03*
X144624134Y-108111525D03*
D34*
X144411634Y-109426525D03*
X142836634Y-109426525D03*
D19*
X145764134Y-112551525D03*
X145764134Y-113521525D03*
D34*
X148611634Y-114326525D03*
X147036634Y-114326525D03*
X148611634Y-112826525D03*
X147036634Y-112826525D03*
D18*
X147109134Y-107026525D03*
X146139134Y-107026525D03*
D29*
X150424134Y-113039025D03*
X150424134Y-114614025D03*
X150464134Y-109049025D03*
X150464134Y-110624025D03*
D18*
X154709134Y-114726525D03*
X153739134Y-114726525D03*
D20*
X152939134Y-116326525D03*
X153909134Y-116326525D03*
X165739134Y-136126525D03*
X166709134Y-136126525D03*
D19*
X166724134Y-133741525D03*
X166724134Y-134711525D03*
D35*
X119599134Y-132676525D03*
X119599134Y-133176525D03*
X119599134Y-133676525D03*
X119599134Y-134176525D03*
X119599134Y-134676525D03*
X119599134Y-135176525D03*
X119599134Y-135676525D03*
X119599134Y-136176525D03*
D36*
X118874134Y-136901525D03*
X118374134Y-136901525D03*
X117874134Y-136901525D03*
X117374134Y-136901525D03*
X116874134Y-136901525D03*
X116374134Y-136901525D03*
X115874134Y-136901525D03*
X115374134Y-136901525D03*
D35*
X114649134Y-136176525D03*
X114649134Y-135676525D03*
X114649134Y-135176525D03*
X114649134Y-134676525D03*
X114649134Y-134176525D03*
X114649134Y-133676525D03*
X114649134Y-133176525D03*
X114649134Y-132676525D03*
D36*
X115374134Y-131951525D03*
X115874134Y-131951525D03*
X116374134Y-131951525D03*
X116874134Y-131951525D03*
X117374134Y-131951525D03*
X117874134Y-131951525D03*
X118374134Y-131951525D03*
X118874134Y-131951525D03*
D37*
X117124134Y-134426525D03*
D29*
X122424134Y-134639025D03*
X122424134Y-136214025D03*
D19*
X121724134Y-126441525D03*
X121724134Y-127411525D03*
D20*
X111969134Y-140616525D03*
X112939134Y-140616525D03*
X111669134Y-143416525D03*
X112639134Y-143416525D03*
D19*
X120924134Y-130601525D03*
X120924134Y-131571525D03*
D20*
X111554134Y-145546525D03*
X112524134Y-145546525D03*
D26*
X115924134Y-139111525D03*
X115924134Y-138141525D03*
D38*
X111866634Y-142116525D03*
X113441634Y-142116525D03*
D26*
X121724134Y-125411525D03*
X121724134Y-124441525D03*
D19*
X122824134Y-124441525D03*
X122824134Y-125411525D03*
D18*
X128509134Y-133726525D03*
X127539134Y-133726525D03*
D21*
X110354134Y-143804025D03*
X110354134Y-142229025D03*
D38*
X111269134Y-147126525D03*
X112844134Y-147126525D03*
X118436634Y-129326525D03*
X120011634Y-129326525D03*
D20*
X142339134Y-116126525D03*
X143309134Y-116126525D03*
X160139134Y-110726525D03*
X161109134Y-110726525D03*
X161089134Y-109426525D03*
X162059134Y-109426525D03*
D18*
X153109134Y-110826525D03*
X152139134Y-110826525D03*
D22*
X177724134Y-105726525D03*
X177724134Y-108526525D03*
X176024134Y-144726525D03*
X176024134Y-147526525D03*
D34*
X152611634Y-138226525D03*
X151036634Y-138226525D03*
D20*
X157739134Y-142626525D03*
X158709134Y-142626525D03*
D39*
X129724134Y-122676525D03*
X129724134Y-123626525D03*
X129724134Y-124576525D03*
X127524134Y-124576525D03*
X127524134Y-123626525D03*
X127524134Y-122676525D03*
D40*
X147186634Y-134426525D03*
X151461634Y-134426525D03*
D41*
X137174134Y-132126525D03*
X135274134Y-132126525D03*
X136224134Y-130126525D03*
D38*
X146936634Y-125126525D03*
X148511634Y-125126525D03*
D42*
X146174134Y-128926525D03*
X147124134Y-128926525D03*
X148074134Y-128926525D03*
X148074134Y-131126525D03*
X146174134Y-131126525D03*
D26*
X131124134Y-124511525D03*
X131124134Y-123541525D03*
X138624134Y-132211525D03*
X138624134Y-131241525D03*
D20*
X125139134Y-123626525D03*
X126109134Y-123626525D03*
D43*
X148174134Y-117876525D03*
X148674134Y-117876525D03*
X149174134Y-117876525D03*
X149674134Y-117876525D03*
X149674134Y-119776525D03*
X149174134Y-119776525D03*
X148674134Y-119776525D03*
X148174134Y-119776525D03*
D44*
X148924134Y-118826525D03*
D18*
X149809134Y-115926525D03*
X148839134Y-115926525D03*
D26*
X150724134Y-117411525D03*
X150724134Y-116441525D03*
D19*
X150724134Y-118341525D03*
X150724134Y-119311525D03*
D22*
X179324134Y-144726525D03*
X179324134Y-147526525D03*
D26*
X179624134Y-128861525D03*
X179624134Y-127891525D03*
X181424134Y-126311525D03*
X181424134Y-125341525D03*
X180824134Y-128861525D03*
X180824134Y-127891525D03*
D18*
X179989134Y-123610525D03*
X179019134Y-123610525D03*
D45*
X153024134Y-120689025D03*
X153024134Y-122564025D03*
D18*
X175909134Y-137826525D03*
X174939134Y-137826525D03*
D39*
X151724134Y-141676525D03*
X151724134Y-142626525D03*
X151724134Y-143576525D03*
X149524134Y-143576525D03*
X149524134Y-141676525D03*
D34*
X146511634Y-151126525D03*
X144936634Y-151126525D03*
D20*
X133639134Y-125126525D03*
X134609134Y-125126525D03*
D41*
X133274134Y-132126525D03*
X131374134Y-132126525D03*
X132324134Y-130126525D03*
D18*
X135909134Y-133426525D03*
X134939134Y-133426525D03*
D46*
X133674134Y-126426525D03*
X135574134Y-126426525D03*
X134624134Y-128426525D03*
D18*
X126909134Y-131626525D03*
X125939134Y-131626525D03*
D26*
X157024134Y-134711525D03*
X157024134Y-133741525D03*
D19*
X157074134Y-137741525D03*
X157074134Y-138711525D03*
D20*
X143639134Y-110626525D03*
X144609134Y-110626525D03*
D47*
X128924134Y-148076525D03*
X130024134Y-148076525D03*
X131124134Y-148076525D03*
X132224134Y-148076525D03*
X133324134Y-148076525D03*
D48*
X137924134Y-147951525D03*
D47*
X134424134Y-148076525D03*
D49*
X126474134Y-147951525D03*
D50*
X126149134Y-139701525D03*
D47*
X135524134Y-148076525D03*
X136624134Y-148076525D03*
D51*
X126624134Y-137276525D03*
D52*
X137774134Y-138851525D03*
D53*
X138099134Y-140351525D03*
D54*
X142624134Y-133464025D03*
X142624134Y-131589025D03*
D40*
X146886634Y-122426525D03*
X151161634Y-122426525D03*
D20*
X160989134Y-108476525D03*
X161959134Y-108476525D03*
D26*
X158624134Y-134711525D03*
X158624134Y-133741525D03*
X164274134Y-136311525D03*
X164274134Y-135341525D03*
D20*
X163339134Y-139476525D03*
X164309134Y-139476525D03*
D18*
X158709134Y-141226525D03*
X157739134Y-141226525D03*
D29*
X155424134Y-142639025D03*
X155424134Y-144214025D03*
D28*
X142524134Y-142726525D03*
X139724134Y-142726525D03*
D34*
X155861634Y-138226525D03*
X154286634Y-138226525D03*
D18*
X153109134Y-109876525D03*
X152139134Y-109876525D03*
D19*
X156724134Y-110841525D03*
X156724134Y-111811525D03*
D18*
X133209134Y-133626525D03*
X132239134Y-133626525D03*
D19*
X160224134Y-140141525D03*
X160224134Y-141111525D03*
X163324134Y-135341525D03*
X163324134Y-136311525D03*
D26*
X161824134Y-135611525D03*
X161824134Y-134641525D03*
D20*
X179639134Y-139626525D03*
X180609134Y-139626525D03*
D18*
X158559134Y-106526525D03*
X157589134Y-106526525D03*
D26*
X153574134Y-106711525D03*
X153574134Y-105741525D03*
D19*
X158624134Y-113041525D03*
X158624134Y-114011525D03*
D20*
X159489134Y-107476525D03*
X160459134Y-107476525D03*
D55*
X137524134Y-118526525D03*
X143324134Y-118526525D03*
X137524134Y-122426525D03*
X143324134Y-122426525D03*
D56*
X193410000Y-108140000D03*
X193410000Y-102340000D03*
D26*
X190710000Y-108625000D03*
X190710000Y-107655000D03*
D39*
X189810000Y-103090000D03*
X189810000Y-104040000D03*
X189810000Y-104990000D03*
X187610000Y-104990000D03*
X187610000Y-103090000D03*
D38*
X187522500Y-106640000D03*
X189097500Y-106640000D03*
D19*
X145324134Y-119841525D03*
X145324134Y-120811525D03*
D20*
X117539134Y-140526525D03*
X118509134Y-140526525D03*
D19*
X136124134Y-123441525D03*
X136124134Y-124411525D03*
D20*
X175739134Y-128826525D03*
X176709134Y-128826525D03*
D57*
X178319134Y-129926525D03*
X179589134Y-129926525D03*
X180859134Y-129926525D03*
X182129134Y-129926525D03*
X182129134Y-137726525D03*
X180859134Y-137726525D03*
X179589134Y-137726525D03*
X178319134Y-137726525D03*
D19*
X172724134Y-133541525D03*
X172724134Y-134511525D03*
D58*
X176960000Y-139100000D03*
X176960000Y-140650000D03*
D59*
X170820000Y-154830000D03*
D60*
X170820000Y-155830000D03*
D61*
X122714134Y-106560000D03*
X121614134Y-106560000D03*
X120514134Y-106560000D03*
X119414134Y-106560000D03*
X118314134Y-106560000D03*
D62*
X113714134Y-106685000D03*
D61*
X117214134Y-106560000D03*
D63*
X125164134Y-106685000D03*
D64*
X125489134Y-114935000D03*
D61*
X116114134Y-106560000D03*
X115014134Y-106560000D03*
D65*
X125014134Y-117360000D03*
D66*
X113864134Y-115785000D03*
D67*
X113539134Y-114285000D03*
D68*
X127404134Y-117380000D03*
X126384134Y-117380000D03*
X174500000Y-102500000D03*
X173480000Y-102500000D03*
M02*
